<svg xmlns="http://www.w3.org/2000/svg" xmlns:xlink="http://www.w3.org/1999/xlink" width="350" height="240" viewBox="0 0 350 240">
    <defs>
        <path id="a" d="M0 171.189h253.22V.679H0z"/>
        <path id="c" d="M.206.778h149.23v88.186H.207z"/>
        <linearGradient id="d" x1="50%" x2="50%" y1="44.645%" y2="186.057%">
            <stop offset="0%" stop-color="#85DDED"/>
            <stop offset="100%" stop-color="#FF970E"/>
        </linearGradient>
        <path id="f" d="M0 171.189h253.22V.679H0z"/>
        <path id="h" d="M.117.015v5.934l6.686-4.093V.015z"/>
        <linearGradient id="i" x1="49.998%" x2="49.998%" y1="-120.857%" y2="-320.273%">
            <stop offset="0%" stop-color="#FD4400"/>
            <stop offset="100%" stop-color="#EFDB28"/>
        </linearGradient>
        <path id="k" d="M0 171.189h253.22V.679H0z"/>
    </defs>
    <g fill="none" fill-rule="evenodd">
        <path d="M0 0h350v240H0z"/>
        <g transform="translate(48 51)">
            <path fill="#B5B7B9" d="M233.947 44.928c3.072-.959 4.3 1.263 4.004 2.971-.417 2.42-1.736 2.696 1.497 4.785 2.388 1.54 2.95 4.734.26 6.337-3.763 2.24.247 3.97 1.123 5.889 1.808 3.962-1.154 4.93-5.945 6.901-4.919 2.022-8.6 1.038-12.032-2.084-2.533-2.307-4.044-4.908-2.522-7.263 2.186-3.38 5.768-1.084 4.377-4.376-.83-1.97-.91-5.642 3.576-5.962 4.486-.322 1.237-5.818 5.662-7.198"/>
            <path fill="#EEE" d="M215.694 38.613c-3.867-.806-5.1 2.053-4.537 4.104.799 2.906 2.442 3.087-1.26 6.023-2.73 2.166-3.038 6.136.441 7.773 4.863 2.29.172 4.88-.67 7.327-1.735 5.054 1.998 5.886 8.085 7.724 6.25 1.885 10.628.246 14.449-3.977 2.821-3.118 4.356-6.476 2.215-9.171-3.073-3.87-7.176-.64-5.87-4.826.782-2.505.44-6.998-5.078-6.859-5.518.141-2.204-6.958-7.775-8.118"/>
            <path fill="#CE181E" d="M220.02 89.766h11.482a2.924 2.924 0 0 0 2.886-2.448l2.526-15.429a.582.582 0 0 0-.574-.675h-21.158a.582.582 0 0 0-.574.675l2.526 15.429a2.924 2.924 0 0 0 2.886 2.448"/>
            <path fill="#EEE" d="M215.779 43.674c.82 2.252 1.663 3.39 2.798 2.098 1.136-1.294-1.162-5.648-2.593-5.109-1.007.382-.595 1.939-.205 3.011"/>
            <mask id="b" fill="#fff">
                <use xlink:href="#a"/>
            </mask>
            <path fill="#EEE" d="M16.274 88.98h146.92V3.048H16.274v85.93zM13.9 91.35H165.57V.677H13.9V91.35z" mask="url(#b)"/>
        </g>
        <g transform="translate(65 53)">
            <mask id="e" fill="#fff">
                <use xlink:href="#c"/>
            </mask>
            <path fill="url(#d)" d="M.206 88.964h149.23V.778H.207z" mask="url(#e)"/>
        </g>
        <g transform="translate(48 51)">
            <g fill="#FFF">
                <path d="M114.14 22.186c-.324-.41-.469-.805-.392-1.16.144-.646.993-1.034 2.267-1.147-.214-.38-.296-.744-.222-1.081.377-1.72 4.661-2.03 9.57-.693 1.75.478 3.345 1.098 4.653 1.78a1.06 1.06 0 0 1 .009-.622c.443-1.279 3.768-1.038 7.423.54.897.387 1.73.82 2.47 1.27.281-.507 1.722-.477 3.326.087.846.298 1.578.687 2.076 1.075l12.769.787h-56.674l12.725-.836zM69.05 58.183c-.223-.281-.322-.551-.269-.794.098-.443.68-.709 1.553-.785-.147-.26-.203-.51-.152-.74.257-1.178 3.191-1.39 6.55-.475 1.2.327 2.29.752 3.187 1.219a.744.744 0 0 1 .006-.426c.304-.876 2.58-.71 5.082.37a14 14 0 0 1 1.692.868c.192-.346 1.18-.326 2.277.061.58.204 1.08.47 1.42.736l8.744.54H60.338l8.712-.574zM42.119 44.551c-.172-.366-.233-.716-.169-1.038.218-1.115 1.855-1.653 4.17-1.57a3.395 3.395 0 0 1-.09-1.569c.793-4.009 9.775-4.733 20.07-1.617 1.945.587 3.8 1.273 5.52 2.024-.15-.496-.186-.977-.097-1.427.553-2.803 5.729-3.754 12.396-2.595.014-.09.036-.168.06-.253.978-3.133 8.084-2.66 16.071.986 1.997-.808 6.053-.252 10.444 1.618 2.473 1.056 4.655 2.355 6.3 3.678-.128-.297-.171-.57-.104-.81.318-1.144 2.963-1.056 5.905.195 1.723.733 3.168 1.706 4.006 2.616l16.57 1.226H23.551l18.567-1.464z"/>
            </g>
            <path fill="#F8FFF8" d="M78.768 90.165h25.672L58.628 1.863H32.955zM67.885 90.165H74.2L28.389 1.863H22.07zM155.604 90.165h6.317L116.108 1.863h-6.316z"/>
            <mask id="g" fill="#fff">
                <use xlink:href="#f"/>
            </mask>
            <path fill="#EEE" d="M18.491 88.98h146.92V3.048H18.49v85.93zm-2.375 2.37h151.67V.677H16.117V91.35z" mask="url(#g)"/>
            <path fill="#8E8E8E" d="M57.174 88.98H72.88V68.144H57.174zM26.111 88.98h12.705V77.458H26.111z" mask="url(#g)"/>
            <path fill="#8E8E8E" d="M54.525 88.98h7.061V68.144h-7.06zM38.82 88.98h15.705V54.448H38.82z" mask="url(#g)"/>
            <path fill="#8E8E8E" d="M54.525 88.98h1.668V68.144h-1.668zM36.174 88.98h7.057V54.448h-7.057zM43.233 62.89h11.293v-2.389H43.233zM43.233 67.238h11.293V64.85H43.233z" mask="url(#g)"/>
            <path fill="#8E8E8E" d="M43.233 71.586h11.293v-2.389H43.233zM43.233 75.934h11.293v-2.389H43.233zM43.233 80.282h11.293v-2.388H43.233zM43.233 84.63h11.293v-2.388H43.233zM43.231 88.98h11.293v-2.39H43.231zM43.233 58.542h11.293v-2.389H43.233zM74.459 78.522v10.457H90.16V73.546H78.87z" mask="url(#g)"/>
            <path fill="#8E8E8E" d="M71.81 81.504v7.475h7.06V73.546l-4.412 4.976L72.88 80.3zM78.87 75.934h11.292v-2.389H78.87zM78.87 80.282h11.292v-2.388H78.87zM78.87 84.63h11.292v-2.388H78.87zM78.87 88.98h11.293v-2.39H78.87zM57.173 68.145H71.31v-2.762H57.173z" mask="url(#g)"/>
            <path fill="#8E8E8E" d="M59.865 65.652h8.755V62.89h-8.755zM96.008 88.98h10.72v-5.365h-10.72z" mask="url(#g)"/>
            <path fill="#8E8E8E" d="M94.2 88.98h4.819v-5.365h-4.82z" mask="url(#g)"/>
            <path fill="#8E8E8E" d="M95.336 83.616h10.324v-2.828H95.336z" mask="url(#g)"/>
            <path fill="#8E8E8E" d="M99.167 80.97h3.332v-3.51h-3.332zM103.332 88.98h.833v-3.365h-.833z" mask="url(#g)"/>
            <path fill="#B5B7B9" d="M46.07 140.749c3.556-2.26-.996-9.175-9.273-9.845 0 0-.885 3.639-.073 6.874.693 2.76 4.366 6.135 9.346 2.97" mask="url(#g)"/>
            <path fill="#B5B7B9" d="M50.841 141.302c4.138-.803 2.437-8.902-5.019-12.55 0 0-2.157 3.063-2.589 6.37-.368 2.821 1.813 7.305 7.608 6.18" mask="url(#g)"/>
            <path fill="#B5B7B9" d="M53.732 141.855c3.674 1.027 5.59-6.214 1.042-12.186 0 0-2.991 1.603-4.684 4.105-1.445 2.133-1.503 6.644 3.642 8.08" mask="url(#g)"/>
            <path fill="#EEE" d="M62.741 123.885c14.078-5.511 2.818-32.982-25.862-41.029 0 0-5.62 12.204-4.993 24.15.535 10.193 11.141 24.598 30.855 16.88" mask="url(#g)"/>
            <path fill="#B5B7B9" d="M39.74 86.324a25.502 25.502 0 0 1 6.56 6.905c.49.614.866 1.317 1.276 1.988.389.687.85 1.319 1.173 2.042.33.718.684 1.419 1.032 2.12l.518 1.052.413 1.107a60.048 60.048 0 0 1 2.778 8.992c.293 1.551.633 3.089.95 4.633l.558 4.716c.092.787.247 1.566.29 2.359l.12 2.383c.087 1.59.148 3.18.26 4.77-.046 3.198-.004 6.401-.095 9.615-.088 1.605-.207 3.21-.267 4.825l-.098 2.423-.049 1.215-.117 1.207-.386 4.857-.192 2.439-.12 2.458.23.047 1.695-9.622.207-1.203.135-1.214.269-2.428.536-4.858.127-1.215.049-1.22.096-2.443.19-4.885-.184-4.889-.093-2.444c-.036-.815-.18-1.621-.266-2.432l-.636-4.854-1.06-4.78c-.838-3.15-1.846-6.272-3.243-9.228l-.49-1.122-.598-1.07-1.202-2.137c-.386-.72-.917-1.353-1.368-2.033-.479-.663-.91-1.36-1.474-1.958-2.049-2.543-4.5-4.806-7.43-6.334l-.094.216z" mask="url(#g)"/>
            <path fill="#EEE" d="M53.85 110.408c-10.717-4.195-2.145-25.108 19.687-31.233 0 0 4.279 9.29 3.801 18.384-.407 7.76-8.48 18.725-23.488 12.85" mask="url(#g)"/>
            <path fill="#B5B7B9" d="M71.251 81.68c-2.22 2.56-4.005 5.437-5.79 8.31-.833 1.47-1.656 2.95-2.4 4.466l-1.148 2.266-1.057 2.307c-2.808 6.167-4.912 12.633-6.572 19.199-.379 1.649-.7 3.312-1.053 4.966l-.508 2.487-.383 2.508-.708 5.023a163.88 163.88 0 0 0-.408 5.053l-.181 2.525c-.039.842-.04 1.688-.063 2.53l-.093 5.055c-.018 1.684.167 3.37.24 5.05.086 1.68.21 3.358.36 5.03l.18-.003c.061-3.346.01-6.695.162-10.037l.318-5.01c.057-.833.095-1.67.17-2.501l.288-2.493.577-4.987.817-4.95.413-2.473.527-2.453c.363-1.633.694-3.273 1.084-4.899 1.594-6.496 3.615-12.891 6.123-19.093 2.534-6.183 5.466-12.252 9.249-17.77l-.144-.106z" mask="url(#g)"/>
            <path fill="#EEE" d="M47.958 98.2c20.239-6.192 7.463-45.734-31.704-60.02 0 0-9.152 16.433-9.553 33.172-.344 14.282 12.916 35.52 41.257 26.848" mask="url(#g)"/>
            <path fill="#B5B7B9" d="M19.85 43.272a51.713 51.713 0 0 1 2.12 3.166c.71 1.047 1.368 2.13 2.02 3.215a57.912 57.912 0 0 1 1.896 3.284c.596 1.115 1.252 2.187 1.788 3.335 1.15 2.246 2.354 4.45 3.36 6.762.519 1.145 1.068 2.273 1.609 3.405l1.455 3.475 1.45 3.47 1.308 3.526 1.314 3.519c.442 1.171.762 2.388 1.148 3.578.364 1.199.768 2.383 1.152 3.575l.584 1.783c.181.6.325 1.21.487 1.814l1.915 7.263c.578 2.434 1.063 4.894 1.6 7.34.25 1.227.552 2.446.762 3.68.185 1.24.363 2.48.573 3.717.391 2.477.851 4.947 1.187 7.436.23 2.498.51 4.996.8 7.498l.425 3.755.2 3.771.471 7.565c.307 5.057.112 10.119.405 15.237l.28.025.445-7.618.224-3.81c.078-1.27.166-2.539.122-3.811l-.06-7.633-.034-3.816-.28-3.807-.563-7.614c-.276-2.529-.68-5.045-1.014-7.568l-.528-3.781c-.2-1.256-.494-2.498-.737-3.746-.521-2.492-.99-4.996-1.554-7.478-2.473-9.882-5.798-19.551-10.075-28.796-4.315-9.209-9.43-18.12-16.048-25.905l-.207.19z" mask="url(#g)"/>
            <path fill="#EEE" d="M36.453 116.59c12.373-8.939-5.588-32.966-35.67-33.606 0 0-2.41 13.351 1.226 24.875 3.101 9.834 17.118 21.248 34.444 8.73" mask="url(#g)"/>
            <path fill="#B5B7B9" d="M4.433 85.627A62.989 62.989 0 0 1 12.94 92.5l1.992 1.851 1.895 1.953c1.29 1.27 2.447 2.67 3.625 4.041 4.657 5.532 8.78 11.477 12.386 17.733l2.605 4.753c.455.783.845 1.6 1.214 2.425l1.152 2.457 1.178 2.45c.192.408.402.812.582 1.227l.504 1.262c.657 1.69 1.365 3.36 2.08 5.034.761 1.656 1.304 3.394 1.908 5.113l1.798 5.169c1.157 3.467 2.077 7.008 3.287 10.505l.199-.038c-.823-3.578-1.575-7.177-2.457-10.741l-1.565-5.285c-.529-1.759-.999-3.538-1.689-5.244l-1.92-5.167-.48-1.293c-.173-.426-.373-.84-.558-1.261l-1.134-2.513-1.134-2.513a25.727 25.727 0 0 0-1.21-2.477l-2.605-4.865c-3.719-6.344-7.988-12.383-12.98-17.794-1.261-1.34-2.499-2.704-3.868-3.935l-2.012-1.89-2.11-1.78c-2.847-2.327-5.829-4.512-9.102-6.23l-.088.181z" mask="url(#g)"/>
            <path fill="#CE181E" d="M39.717 161.025h17.399c.865 0 1.592-.646 1.694-1.503l2.398-20.129a1.704 1.704 0 0 0-1.694-1.905H37.319a1.705 1.705 0 0 0-1.694 1.905l2.398 20.129c.102.857.83 1.503 1.694 1.503" mask="url(#g)"/>
            <path fill="#CE181E" d="M35.07 141.479h26.693c.556 0 1.029-.405 1.113-.954l.523-3.421a1.123 1.123 0 0 0-1.112-1.293H34.546c-.69 0-1.217.612-1.113 1.293l.524 3.421c.084.549.557.954 1.113.954" mask="url(#g)"/>
            <path fill="#B5B7B9" d="M55.8 96.205h194.194a3.223 3.223 0 0 0 3.225-3.22 3.222 3.222 0 0 0-3.225-3.22H55.8a3.222 3.222 0 0 0-3.225 3.22 3.223 3.223 0 0 0 3.225 3.22" mask="url(#g)"/>
            <path fill="#EEE" d="M199.29 96.205h50.705a3.223 3.223 0 0 0 3.225-3.22 3.222 3.222 0 0 0-3.225-3.22H199.29a3.223 3.223 0 0 0-3.226 3.22 3.223 3.223 0 0 0 3.226 3.22" mask="url(#g)"/>
            <path fill="#EEE" d="M242.158 171.178h6.458V96.203h-6.458zM200.694 171.178h6.457V96.213h-6.457z" mask="url(#g)"/>
            <path fill="#B5B7B9" d="M200.694 171.178h3.233V96.213h-3.233z" mask="url(#g)"/>
            <path fill="#EEE" d="M57.184 171.178h6.457V96.213h-6.457z" mask="url(#g)"/>
            <path fill="#B5B7B9" d="M98.648 171.178h6.447V96.203h-6.447zM57.184 171.178h3.233V96.213h-3.233zM248.613 96.205v2.07l-6.45 4.597v-6.667zM200.696 96.205h6.45v2.07l-6.45 4.597z" mask="url(#g)"/>
        </g>
        <g transform="translate(146 148)">
            <mask id="j" fill="#fff">
                <use xlink:href="#h"/>
            </mask>
            <path fill="url(#i)" d="M.117.015v5.934l6.686-4.093V.015z" mask="url(#j)"/>
        </g>
        <g transform="translate(48 51)">
            <path fill="#B5B7B9" d="M63.633 96.205v2.07l-6.45 4.597v-6.667z"/>
            <path fill="#F99569" d="M156.939 34.62l-.633 5.59-4.382 38.749h59.642l4.383-38.75.632-5.59z"/>
            <path fill="#EEE" d="M210.713 78.107h-59.642l4.382-38.75h59.642z"/>
            <path fill="#FFF" d="M209.29 75.906h-56.299l2.123-18.766h56.299z"/>
            <path fill="#CE181E" d="M170.635 73.708h-16.069l1.724-15.234h16.07z"/>
            <path fill="#000" d="M175.58 67.83h-12.93l1.386-12.258h12.93z"/>
            <path fill="#F9F4EA" d="M167.792 54.606H155.4l.463-4.09h12.393z"/>
            <path fill="#B5B7B9" d="M163.34 51.775h-5.972l.065-.567h5.971z"/>
            <path fill="#CE181E" d="M209.43 64.603h-16.069l.976-8.617h16.067z"/>
            <path fill="#33333D" d="M209.21 66.554h-16.07l.071-.617h16.068zM209.065 67.83h-16.069l.07-.617h16.068z"/>
            <path fill="#F9F4EA" d="M182.428 53.163h-12.393l.463-4.09h12.394z"/>
            <path fill="#B5B7B9" d="M215.166 54.606h-27.028l.462-4.09h27.029z"/>
            <path fill="#F9F4EA" d="M199.776 51.775h-10.313l.065-.567h10.312zM199.655 52.845h-10.313l.065-.567h10.312z"/>
            <path fill="#FFF" d="M208.676 48.003h-56.3l.64-5.642h56.298z"/>
            <path fill="#B5B7B9" d="M207.897 47.227H203.8l.461-4.09h4.098z"/>
            <path fill="#CE181E" d="M202.028 47.227h-4.096l.46-4.09h4.099zM196.16 47.227h-4.097l.462-4.09h4.097zM167.93 44.125h-13.466l.089-.789h13.466zM167.771 45.528h-13.466l.09-.79h13.466zM160.118 46.93h-5.971l.089-.79h5.97zM190.525 70.216h-16.068l.974-8.616h16.067z"/>
            <path fill="#33333D" d="M190.304 72.167h-16.07l.071-.617h16.069zM190.16 73.444h-16.07l.071-.618h16.069z"/>
            <path fill="#000" d="M190.04 65.658h-6.162l.607-5.363h6.161z"/>
            <path fill="#D3D3D3" d="M215.095 39.357h-59.642l.633-5.59h59.642z"/>
            <path fill="#F2F2F2" d="M214.125 38.186h-57.437l.208-1.844h57.438z"/>
            <path fill="#F9F4EA" d="M157.927 35.72h-.961l.11-.958h.96zM159.634 35.72h-.96l.108-.958h.961zM161.341 35.72h-.96l.108-.958h.96z"/>
            <path fill="#CE181E" d="M169.324 84.985h-5.971a9.694 9.694 0 0 0-8.015 4.236l-.372.545h22.746l-.373-.545a9.694 9.694 0 0 0-8.015-4.236"/>
            <path fill="#B5B7B9" d="M166.35 6.794H16.738l1.086-2.347h149.613z"/>
            <path fill="#B5B7B9" d="M39.013 25.665a.542.542 0 0 1-.543-.541V5.62a.542.542 0 0 1 1.086 0v19.503a.542.542 0 0 1-.543.541M144.629 25.665a.542.542 0 0 1-.543-.541V5.62a.542.542 0 0 1 1.085 0v19.503a.542.542 0 0 1-.542.541"/>
            <path fill="#B5B7B9" d="M166.35 10.045H16.738l1.086-2.348h149.613zM166.35 13.295H16.738l1.086-2.348h149.613zM166.35 16.546H16.738l1.086-2.348h149.613zM166.35 19.796H16.738l1.086-2.348h149.613zM166.35 23.047H16.738l1.086-2.348h149.613zM166.35 26.297H16.738l1.086-2.348h149.613z"/>
            <path fill="#231A66" d="M130.914 163.86c.388.647.43 1.67 2.833 2.566 2.404.897 7.42 1.13 4.691 2.155-2.73 1.026-4.873.858-6.522.686-1.65-.173-2.624.086-4.557.168-2.546.108-2.574-.042-2.366-2.822.286-3.826 4.668-4.847 5.921-2.754"/>
            <path fill="#CE181E" d="M125.279 163.778c4.153-14.236 6.082-40.866 13.242-51.272 4.55-6.613 13.381-4.004 10.109 4.866-3.5 9.478-12.37 27.173-17.337 46.058-.487 1.856-6.478 2.019-6.014.348"/>
            <path fill="#CE181E" d="M146.078 120.66c3.801-1.4 7.091-14.372-6.897-12.622-6.207.774-28.146 2.429-31.45 2.833-3.304.405-8.121 1.202-8.649 2.89-2.637 8.439 7.626 16.03 19.973 13.27 8.253-1.844 19.141-3.47 27.023-6.37"/>
            <path fill="#FFF" d="M108.718 88.386c-2.032 1.542-4.203 1.513-10.161 2.226-8.582 1.025-10.685.72-16.141-.526-3.564-.814-.76-8.57 4.17-8.784 4.166-.182 18.682 4.204 21.218 4.082 1.678-.079 2.564 1.75.914 3.002"/>
            <path fill="#FFF" d="M81.204 86.092c.372-1.957 1.872-6.185 8.041-15.17 3.764-5.483 5.764-7.558 7.146-9.075 2.465-2.703 6.133-1.783 6.986-.064 1.373 2.773 1.36 7.457.155 8.953-6.8 8.438-12.546 14.514-13.831 16.846-1.876 3.407-8.937.83-8.497-1.49"/>
            <path fill="#231A66" d="M141.634 165.078c.387.648 2.162 2.103 4.567 3.002 2.404.897 7.42 1.129 4.69 2.153-2.73 1.027-5.99.645-7.64.47-1.65-.173-3.24-.13-5.172-.05-2.546.11-2.573-.04-2.366-2.82.285-3.826 4.668-4.847 5.921-2.755"/>
            <path fill="#FFAF84" d="M101.737 46.305c.515 5.146.666 6.286 2.918 8.393 2.253 2.108 5.773 2.415 8.216 2.415 2.64 0 4.38-3.178 4.977-5.356.617-2.255 1.255-6.49.515-12.126-.375-2.857-3.908-6.323-7.552-6.323-3.643 0-10.332.422-9.074 12.997"/>
            <path fill="#FFAF84" d="M104.362 55.37a129.432 129.432 0 0 0-.33 5.712c-.077 2.458 1.844 4.757 4.295 4.985.11.011.194.013.282.013 2.227 0 4.847-2.013 4.651-4.237a51.738 51.738 0 0 1-.183-4.185 5.783 5.783 0 0 0-3.863-5.428c-2.26-.798-4.665.755-4.852 3.14"/>
            <path fill="#FFF" d="M94.046 77.371c4.139 13.58 5.496 21.698 4.686 31.183h31.163s-.183-23.086-2.269-39.04c-.486-3.71-2.623-7.052-6.578-9.149-2.344-1.244-6.582-1.836-8.306-1.836h-5.758c-1.93 0-4.209.183-6.082.756-8.498 2.6-9.255 10.216-6.856 18.086"/>
            <path fill="#CE181E" d="M98.86 127.583s-2.692-6.528-.127-19.029h31.162s1.112 8.92 1.136 19.03H98.86zM135.947 165.25c5.305-13.848 9.407-40.233 17.394-50.02 5.076-6.22 13.666-2.897 9.677 5.674-4.263 9.162-14.552 26.074-21.048 44.49-.64 1.811-6.622 1.484-6.023-.143"/>
            <path fill="#CE181E" d="M160.206 123.974c3.903-1.084 8.245-13.745-5.842-13.144-6.248.267-28.249.126-31.576.26-3.324.134-8.192.535-8.856 2.174-3.318 8.196 6.288 16.599 18.819 14.855 8.378-1.164 19.363-1.897 27.455-4.145"/>
            <path fill="#FFAF84" d="M117.004 45.223c-.728 1.782-.562 3.533.374 3.914.933.38 2.281-.753 3.01-2.534.728-1.78.562-3.532-.373-3.913-.934-.381-2.281.753-3.01 2.533M103.576 45.223c.73 1.782.562 3.533-.373 3.914-.933.38-2.281-.753-3.01-2.534-.729-1.78-.562-3.532.373-3.913.933-.381 2.281.753 3.01 2.533"/>
            <path fill="#000" d="M103.324 36.163c2.008 2.993 11.712 3.272 14.88 2.17 3.165-1.103 2.946-7.216-1.585-7.635-2.552-.004-.703.606-2.77 1.443-1.048.425-12.668.828-10.525 4.022"/>
            <path fill="#FFAF84" d="M159.484 67.162c1.296-.81 12.404-7.846 12.271-5.088-.147 3.047-3.959 6.33-5.335 7.27-2.517 1.717-5.235 2.273-6.272.922-.734-.957-1.896-2.335-.664-3.104"/>
            <path fill="#FFF" d="M161.68 66.581c-2.354.515-16.51 4.769-20.934 6.992-2.56-1.401-8.093-7.101-17.093-12.498-3.339-2.002-6.382-1.322-9.093.174-1.683.929-2.436 4.628.381 6.962 1.58 1.309 3.75 3.209 9.406 6.713 9.273 5.742 13.573 7.047 15.55 7.328.08.011.16-.006.241-.012l.08-.005c.067-.01.134-.02.2-.04.125-.023.249-.035.379-.079 3.692-1.263 8.36-3.12 15.322-7.21 5.694-3.345 6.306-3.045 7.459-5.28.934-1.814-.627-3.322-1.898-3.045"/>
            <path fill="#000" d="M114.242 35.645c2.988 1.8 3.683 3.38 3.6 7.068-.084 3.688-1.665 9.98-8.467 11.385-6.804 1.405-8.408-5.332-8.819-9.98-.41-4.65-.144-8.122 3.296-8.957 5.107-1.238 8.58-.608 10.39.484"/>
            <path fill="#606060" d="M139.002 167.308a2.255 2.255 0 0 1-2.21-1.802H98.25a2.257 2.257 0 0 1-4.468-.45 4.062 4.062 0 0 1 4.061-4.054h39.355a4.062 4.062 0 0 1 4.06 4.053 2.255 2.255 0 0 1-2.256 2.253M150.444 127.555h-11.891c-6.288 0-10.28-3.313-11.238-9.324-1.175-7.367-3.354-31.465-3.377-31.708-.155-1.713-1.699-2.829-3.452-2.492H84.654c-1.752.336-3.046 1.996-2.891 3.71.09.998 2.22 24.543 3.427 32.11 1.4 8.78 7.702 14.023 16.857 14.023H149.772c1.748 0 3.316-1.415 3.5-3.16.186-1.744-1.08-3.16-2.828-3.16M121.339 139.32h-7.637a1.522 1.522 0 0 1-1.522-1.52v-3.925h10.682v3.924c0 .84-.682 1.521-1.523 1.521"/>
            <mask id="l" fill="#fff">
                <use xlink:href="#k"/>
            </mask>
            <path fill="#B5B7B9" d="M113.936 160.514h7.169V139.32h-7.169z" mask="url(#l)"/>
            <path fill="#606060" d="M122.34 163.254h-9.64v-5.11c0-.826.671-1.497 1.5-1.497h6.641c.829 0 1.5.67 1.5 1.496v5.111z" mask="url(#l)"/>
            <path fill="#606060" d="M127.147 167.308a2.256 2.256 0 0 1-2.211-1.802h-14.83a2.256 2.256 0 0 1-4.467-.45 4.06 4.06 0 0 1 4.06-4.054h15.643c2.239 0 4.06 1.818 4.06 4.053a2.254 2.254 0 0 1-2.255 2.253" mask="url(#l)"/>
            <path fill="#606060" d="M111.717 168.122a3.07 3.07 0 0 1-3.072 3.067 3.07 3.07 0 0 1-3.073-3.067 3.07 3.07 0 0 1 3.073-3.067 3.07 3.07 0 0 1 3.072 3.067" mask="url(#l)"/>
            <path fill="#606060" d="M110.217 168.122a3.07 3.07 0 0 1-3.073 3.067 3.07 3.07 0 0 1-3.072-3.067 3.07 3.07 0 0 1 3.072-3.067 3.07 3.07 0 0 1 3.073 3.067M130.97 168.122a3.07 3.07 0 0 1-3.073 3.067 3.07 3.07 0 0 1-3.073-3.067 3.07 3.07 0 0 1 3.073-3.067 3.07 3.07 0 0 1 3.072 3.067" mask="url(#l)"/>
            <path fill="#606060" d="M129.47 168.122a3.07 3.07 0 0 1-3.074 3.067 3.07 3.07 0 0 1-3.072-3.067 3.07 3.07 0 0 1 3.072-3.067 3.07 3.07 0 0 1 3.073 3.067M99.862 168.122a3.07 3.07 0 0 1-3.073 3.067 3.07 3.07 0 0 1-3.072-3.067 3.07 3.07 0 0 1 3.072-3.067 3.07 3.07 0 0 1 3.073 3.067" mask="url(#l)"/>
            <path fill="#606060" d="M98.36 168.122a3.07 3.07 0 0 1-3.071 3.067 3.069 3.069 0 0 1-3.072-3.067 3.07 3.07 0 0 1 3.072-3.067 3.07 3.07 0 0 1 3.072 3.067M142.826 168.122a3.07 3.07 0 0 1-3.073 3.067 3.069 3.069 0 0 1-3.072-3.067 3.07 3.07 0 0 1 3.072-3.067 3.07 3.07 0 0 1 3.073 3.067" mask="url(#l)"/>
            <path fill="#606060" d="M141.325 168.122a3.07 3.07 0 0 1-3.072 3.067 3.07 3.07 0 0 1-3.073-3.067 3.07 3.07 0 0 1 3.073-3.067 3.07 3.07 0 0 1 3.072 3.067" mask="url(#l)"/>
            <path fill="#CECECE" d="M121.104 141.85l-7.168-1.997v-.533h7.168z" mask="url(#l)"/>
            <path fill="#606060" d="M122.862 136.404l-10.683-1.997v-.533h10.683z" mask="url(#l)"/>
        </g>
    </g>
</svg>
