<svg xmlns="http://www.w3.org/2000/svg" xmlns:xlink="http://www.w3.org/1999/xlink" width="350" height="240" viewBox="0 0 350 240">
    <defs>
        <path id="a" d="M0 .637h15.571v9.973H0z"/>
        <path id="c" d="M.456.766h13.249v14.548H.455z"/>
        <path id="e" d="M0 207h255V1H0z"/>
    </defs>
    <g fill="none" fill-rule="evenodd">
        <path d="M0 0h350v240H0z"/>
        <g transform="translate(48 33)">
            <path fill="#000" d="M198.537 73a.292.292 0 0 1-.282-.265l-.107-1.43a.29.29 0 0 1 .278-.304.292.292 0 0 1 .32.263l.105 1.432a.29.29 0 0 1-.314.303"/>
            <path fill="#EEE" d="M204 132.757l-3.313.243L197 77.242l1.656-.12 1.657-.122zM198.523 72l-.607.052L197 77l3-.256z"/>
            <path stroke="#EEE" stroke-width="1.056" d="M9 86c6.179 33.761 29.72 63.863 61 78"/>
            <path fill="#EEE" d="M11.515 93c-3.202-3.83-4.82-8.737-4.468-13.545.087-1.177.37-2.48 1.423-3.167.29-.189.642-.321.995-.28.568.064.964.54 1.24.998 1.46 2.428 1.444 5.361 1.109 8.116-.335 2.753-.184 4.857-.3 7.878M13.651 102c-1.296-4.538-.64-9.478 1.813-13.638.6-1.02 1.44-2.08 2.727-2.322.353-.067.74-.06 1.052.1.502.257.66.819.716 1.324.29 2.678-1.02 5.286-2.549 7.621-1.527 2.337-2.317 4.263-3.759 6.915M18.245 114c-1.625-4.255-1.66-9.101-.097-13.38.383-1.049.962-2.162 2.012-2.53.289-.1.615-.134.895-.012.452.197.652.724.758 1.207.562 2.56-.229 5.217-1.234 7.636-1.006 2.419-1.44 4.364-2.334 7.079M25.245 124c-1.625-4.255-1.66-9.101-.098-13.38.384-1.048.963-2.162 2.013-2.53.289-.1.616-.134.896-.012.45.197.651.724.757 1.208.562 2.559-.229 5.217-1.234 7.635-1.006 2.42-1.44 4.364-2.334 7.079M35.273 137c-2.284-4.27-2.878-9.334-1.64-13.979.304-1.138.817-2.366 1.935-2.865.308-.137.665-.208.989-.11.522.155.803.685.976 1.178.914 2.614.344 5.481-.49 8.12-.835 2.638-1.091 4.72-1.77 7.656M42.688 145c-2.246-3.67-3.142-8.314-2.47-12.815.164-1.103.497-2.318 1.393-2.935.247-.171.54-.286.819-.24.448.075.725.53.908.967.97 2.314.72 5.065.229 7.64-.49 2.576-.542 4.552-.879 7.383"/>
            <g transform="translate(0 95)">
                <mask id="b" fill="#fff">
                    <use xlink:href="#a"/>
                </mask>
                <path fill="#EEE" d="M15.571 10.61c-5.022-.295-10.014-2.384-13.78-5.77C.869 4.01-.042 2.962.002 1.787c.013-.323.109-.653.347-.87C.731.566 1.353.603 1.892.713c2.853.579 5.267 2.508 7.347 4.539 2.08 2.03 3.904 3.302 6.332 5.357" mask="url(#b)"/>
            </g>
            <path fill="#EEE" d="M20 114.675c-4.844.878-10.102-.041-14.511-2.536-1.08-.611-2.204-1.443-2.45-2.624-.068-.324-.057-.677.115-.948.28-.439.88-.546 1.418-.563 2.854-.088 5.62 1.27 8.096 2.81 2.475 1.538 4.52 2.38 7.332 3.861M26 125.567c-4.625 1.761-10.023 1.905-14.9.397-1.196-.37-2.478-.94-2.96-2.009-.133-.293-.195-.628-.079-.918.188-.467.76-.684 1.29-.803 2.813-.634 5.83.118 8.597 1.095 2.766.978 4.964 1.38 8.052 2.238M36 138.76c-4.9.743-10.174-.256-14.56-2.755-1.074-.612-2.187-1.438-2.408-2.582-.062-.315-.043-.653.136-.911.291-.417.898-.507 1.441-.512 2.878-.024 5.633 1.345 8.092 2.881 2.459 1.537 4.5 2.392 7.299 3.879M44 146.585c-4.03 3.174-9.216 4.752-14.315 4.355-1.25-.098-2.634-.394-3.371-1.456-.203-.29-.347-.647-.307-1 .063-.569.562-.96 1.045-1.233 2.561-1.443 5.67-1.4 8.593-1.04 2.922.362 5.15.232 8.355.374"/>
            <path fill="#88D2FF" d="M186.792 86L198 131.438l-2.132.562L182 87.263"/>
            <path fill="#B5B7B9" d="M171.152 64.342c-3.814.968-5.865 5.863-4.57 10.913 1.294 5.05 5.452 8.37 9.266 7.402 3.814-.966 5.865-5.862 4.57-10.912-1.295-5.049-5.452-8.37-9.266-7.403m5.734 22.365c-6.059 1.538-12.508-3.137-14.375-10.42-1.867-7.282 1.544-14.457 7.603-15.995 6.058-1.536 12.508 3.138 14.375 10.42 1.867 7.283-1.544 14.459-7.603 15.995"/>
            <path fill="#C0EDFF" d="M182.407 73.04l3.552 14.285c.178.719-.244 1.45-.945 1.633-.7.183-1.413-.25-1.592-.97l-.4-1.613s-1.865-4.08-7.022-2.398c0 0 6.15-.788 6.359-.773.209.015-.146-10.944.048-10.164"/>
            <path fill="#B5B7B9" d="M185.547 90.895c-1.74.461-3.516-.635-3.96-2.443 0 0-.205-1.098-.616-1.705-.644-.95-1.958-1.307-4.363-.67L176 82.547c1.264-.42 2.172-1.052 3.189-.98l1.376-.17c-.005-1.081-.025-2.506-.04-3.599-.017-1.161 1.434-2.467 1.43-3.3-.005-1.496-1.483-3.007.305-3.256l1.758-.243 3.88 15.78c.444 1.808-.61 3.654-2.35 4.115"/>
            <path fill="#CFD2D5" d="M189 85.004l.034 46.996 2.224-.002L194 85"/>
            <path fill="#B5B7B9" d="M193.075 69.505c.004 5.162 3.114 9.358 6.932 9.356 3.818-.004 6.922-4.204 6.918-9.366-.004-5.161-3.114-9.358-6.931-9.356-3.819.004-6.923 4.204-6.919 9.366m-4.075.003c-.006-7.444 4.924-13.503 10.99-13.508 6.066-.004 11.005 6.048 11.01 13.492.005 7.444-4.924 13.504-10.99 13.508-6.065.004-11.005-6.048-11.01-13.492"/>
            <path fill="#C0EDFF" d="M190 73.043l.01 14.625a1.331 1.331 0 1 0 2.662-.001l-.001-1.652s.835-4.392 6.329-4.076c0 0-6.254.793-6.455.861-.203.067-2.546-10.555-2.545-9.757"/>
            <path fill="#B5B7B9" d="M192.332 90c1.833 0 3.323-1.528 3.322-3.403 0 0-.064-1.122.194-1.818.405-1.092 1.619-1.78 4.152-1.782l-.258-3.592c-1.352-.083-2.405-.464-3.393-.129l-1.401.188c-.26-1.052-.587-2.445-.837-3.512-.267-1.135-2.019-2.03-2.22-2.843-.358-1.458.735-3.312-1.093-3.091l-1.798.219.003 16.366c.002 1.874 1.494 3.398 3.329 3.397"/>
            <path fill="#CE181E" d="M208.886 123L203 121.943l9.099-50.12c.1-.544.622-.905 1.169-.807l3.905.702c.547.098.91.619.81 1.163L208.887 123z"/>
            <path fill="#CE181E" d="M217.115 78L211 76.858l.869-4.97c.102-.587.646-.977 1.213-.87l4.058.757c.568.106.946.668.843 1.256L217.115 78z"/>
            <path fill="#CE181E" d="M217.64 79l-6.64-.753.36-1.247 6.64.753z"/>
            <path fill="#EEE" d="M213.577 136L204 132.198 224.424 80 234 83.803z"/>
            <path stroke="#CCCACA" stroke-width="1.056" d="M231 83l3 2M229 86l3 2M228 89l3 2M225 91l5 2M226 94l3 2M225 97l3 2M224 100l3 2M221 102l5 2M222 105l3 2M221 108l3 2M220 110l3 2M216 113l5 2M217 116l3 2M217 118l3 2M215 121l3 2M212 123l5 2M213 127l3 2M213 129l3 2M211 132l3 2"/>
            <path fill="#B5B7B9" d="M220.82 183h-48.64l-8.17-72.279c-.104-.918.628-1.721 1.57-1.721h61.84c.942 0 1.674.803 1.57 1.721L220.82 183z"/>
            <g transform="translate(106)">
                <mask id="d" fill="#fff">
                    <use xlink:href="#c"/>
                </mask>
                <path fill="#CE181E" d="M7.08 10.802c-2.053 0-3.717-1.602-3.717-3.578 0-1.975 1.664-3.577 3.717-3.577s3.717 1.602 3.717 3.577c0 1.976-1.664 3.578-3.717 3.578m0-10.036C3.421.766.456 3.622.456 7.143v8.17h13.249v-8.17c0-3.521-2.966-6.377-6.625-6.377" mask="url(#d)"/>
            </g>
            <path fill="gray" d="M165.535 191H58.465C53.79 191 50 187.218 50 182.552V24.448C50 19.782 53.79 16 58.465 16h107.07c4.676 0 8.465 3.782 8.465 8.448v158.104c0 4.666-3.79 8.448-8.465 8.448"/>
            <mask id="f" fill="#fff">
                <use xlink:href="#e"/>
            </mask>
            <path fill="#EEE" d="M57 184h109V23H57z" mask="url(#f)"/>
            <path fill="#FFF" d="M61 179h101V28H61z" mask="url(#f)"/>
            <path fill="#CE181E" d="M152 26H72v-5.017C72 17.679 74.74 15 78.12 15h67.76c3.38 0 6.12 2.68 6.12 5.983V26z" mask="url(#f)"/>
            <path fill="#B5B7B9" d="M94 49c0 7.18-5.82 13-13 13s-13-5.82-13-13 5.82-13 13-13 13 5.82 13 13" mask="url(#f)"/>
            <path stroke="#CE181E" d="M97 49c0 8.285-6.716 15-15 15-8.284 0-15-6.715-15-15s6.716-15 15-15c8.284 0 15 6.715 15 15z" mask="url(#f)"/>
            <path fill="#FFF" d="M84.677 48.437c1.338-.82 2.226-2.233 2.226-3.843C86.903 42.057 84.708 40 82 40c-2.708 0-4.904 2.057-4.904 4.594 0 1.61.889 3.022 2.226 3.843-3.048.679-5.322 3.232-5.322 6.295v3.818A14.15 14.15 0 0 0 82 61c2.994 0 5.753-.917 8-2.451v-3.817c0-3.063-2.274-5.616-5.323-6.295" mask="url(#f)"/>
            <path fill="#B5B7B9" d="M102 37l.618 1.316 1.382.212-1 1.025.235 1.447-1.235-.683-1.236.683.236-1.447-1-1.025 1.381-.212zM109 37l.619 1.316 1.381.212-1 1.025.236 1.447-1.236-.683-1.235.683.235-1.447-1-1.025 1.382-.212zM114 37l.618 1.316 1.382.212-1 1.025.235 1.447-1.235-.683-1.236.683.236-1.447-1-1.025 1.381-.212zM121 37l.619 1.316 1.381.212-1 1.025.236 1.447-1.236-.683-1.235.683.236-1.447L119 38.528l1.382-.212zM127 37l.618 1.316 1.382.212-1 1.025.236 1.447-1.236-.683-1.236.683.236-1.447-1-1.025 1.381-.212z" mask="url(#f)"/>
            <g stroke="#B5B3AF" stroke-linecap="round" stroke-linejoin="round" stroke-width="2.113" mask="url(#f)">
                <path d="M100.408 43.722h13.093M142.883 48.848h9.955M100.408 48.848h38.16M100.408 53.975h52.43M136.173 59.102h16.665M100.408 59.102h31.617M117.797 43.722h35.04"/>
            </g>
            <path fill="#B5B7B9" d="M94 85c0 7.18-5.82 13-13 13s-13-5.82-13-13 5.82-13 13-13 13 5.82 13 13" mask="url(#f)"/>
            <path fill="#FFF" d="M84.677 85.437c1.338-.82 2.226-2.233 2.226-3.843C86.903 79.057 84.708 77 82 77c-2.708 0-4.904 2.057-4.904 4.594 0 1.61.889 3.022 2.226 3.843-3.048.679-5.322 3.232-5.322 6.295v3.818A14.15 14.15 0 0 0 82 98c2.994 0 5.753-.917 8-2.45v-3.818c0-3.063-2.274-5.616-5.323-6.295" mask="url(#f)"/>
            <path fill="#B5B7B9" d="M102 74l.618 1.316 1.382.212-1 1.025.235 1.447-1.235-.683-1.236.683.236-1.447-1-1.025 1.381-.212zM109 74l.619 1.316 1.381.212-1 1.025.236 1.447-1.236-.683-1.235.683.235-1.447-1-1.025 1.382-.212zM114 74l.618 1.316 1.382.212-1 1.025.235 1.447-1.235-.683-1.236.683.236-1.447-1-1.025 1.381-.212zM121 74l.619 1.316 1.381.212-1 1.025.236 1.447-1.236-.683-1.235.683.236-1.447L119 75.528l1.382-.212zM127 74l.618 1.316 1.382.212-1 1.025.236 1.447-1.236-.683-1.236.683.236-1.447-1-1.025 1.381-.212z" mask="url(#f)"/>
            <g stroke="#B5B3AF" stroke-linecap="round" stroke-linejoin="round" stroke-width="2.113" mask="url(#f)">
                <path d="M100.408 80.972h23.287M114.193 86.099h38.645M100.408 86.099h9.471M100.408 91.225h52.43M142.1 96.351h10.738M100.408 96.351h37.544M127.992 80.972h24.846"/>
            </g>
            <path fill="#B5B7B9" d="M94 122c0 7.18-5.82 13-13 13s-13-5.82-13-13 5.82-13 13-13 13 5.82 13 13" mask="url(#f)"/>
            <path fill="#FFF" d="M84.677 122.437c1.338-.82 2.226-2.233 2.226-3.843 0-2.537-2.195-4.594-4.903-4.594-2.708 0-4.904 2.057-4.904 4.594 0 1.61.889 3.022 2.226 3.843-3.048.679-5.322 3.23-5.322 6.295v3.817A14.15 14.15 0 0 0 82 135c2.994 0 5.753-.917 8-2.451v-3.817c0-3.064-2.274-5.616-5.323-6.295" mask="url(#f)"/>
            <path fill="#B5B7B9" d="M102 110l.618 1.317 1.382.211-1 1.026.235 1.446-1.235-.683-1.236.683.236-1.446-1-1.026 1.381-.211zM109 110l.619 1.317 1.381.211-1 1.026.236 1.446-1.236-.683-1.235.683.235-1.446-1-1.026 1.382-.211zM114 110l.618 1.317 1.382.211-1 1.026.235 1.446-1.235-.683-1.236.683.236-1.446-1-1.026 1.381-.211zM121 110l.619 1.317 1.381.211-1 1.026.236 1.446-1.236-.683-1.235.683.236-1.446-1.001-1.026 1.382-.211zM127 110l.618 1.317 1.382.211-1 1.026.236 1.446-1.236-.683-1.236.683.236-1.446-1-1.026 1.381-.211z" mask="url(#f)"/>
            <g stroke="#B5B3AF" stroke-linecap="round" stroke-linejoin="round" stroke-width="2.113" mask="url(#f)">
                <path d="M100.408 117.22h13.093M124.428 122.335h28.41M100.408 122.335h19.706M100.408 127.45h52.43M112.335 132.564h40.503M100.408 132.564h7.779M117.797 117.22h35.04"/>
            </g>
            <path fill="#B5B7B9" d="M94 159c0 7.18-5.82 13-13 13s-13-5.82-13-13 5.82-13 13-13 13 5.82 13 13" mask="url(#f)"/>
            <path fill="#FFF" d="M84.677 159.437c1.338-.82 2.226-2.232 2.226-3.843 0-2.536-2.195-4.594-4.903-4.594-2.708 0-4.904 2.058-4.904 4.594 0 1.611.889 3.022 2.226 3.843-3.048.679-5.322 3.232-5.322 6.295v3.817A14.144 14.144 0 0 0 82 172c2.994 0 5.753-.916 8-2.451v-3.817c0-3.063-2.274-5.616-5.323-6.295" mask="url(#f)"/>
            <path fill="#B5B7B9" d="M102 147l.618 1.317 1.382.21-1 1.026.235 1.447-1.235-.683-1.236.683.236-1.447-1-1.025 1.381-.21zM109 147l.619 1.317 1.381.21-1 1.026.236 1.447-1.236-.683-1.235.683.235-1.447-1-1.025 1.382-.21zM114 147l.618 1.317 1.382.21-1 1.026.235 1.447-1.235-.683-1.236.683.236-1.447-1-1.025 1.381-.21zM121 147l.619 1.317 1.381.21-1 1.026.236 1.447-1.236-.683-1.235.683.236-1.447-1.001-1.025 1.382-.21zM127 147l.618 1.317 1.382.21-1 1.026.236 1.447-1.236-.683-1.236.683.236-1.447-1-1.025 1.381-.21z" mask="url(#f)"/>
            <g stroke="#B5B3AF" stroke-linecap="round" stroke-linejoin="round" stroke-width="2.113" mask="url(#f)">
                <path d="M152.838 170.002h-13.093M110.363 164.875h-9.955M152.838 164.875h-38.161M152.838 159.749h-52.43M117.073 154.623h-16.665M152.838 154.623H121.22M135.449 170.002h-35.04"/>
            </g>
            <path fill="#B6B5B3" d="M94.74 67.854c3.199-4.559 7.991-7.604 13.494-8.577a21.354 21.354 0 0 1 3.7-.325c4.245 0 8.383 1.287 11.935 3.757 4.581 3.186 7.641 7.954 8.619 13.43.975 5.476-.25 11.003-3.45 15.561-3.2 4.56-7.992 7.605-13.493 8.577-5.506.97-11.056-.248-15.636-3.433-9.456-6.573-11.774-19.577-5.169-28.99m1.746 33.868c4.567 3.177 9.888 4.832 15.346 4.832 1.58 0 3.171-.138 4.757-.418a26.856 26.856 0 0 0 10.595-4.357l10.016 12.04c-.027.404.017.814.111 1.21.272 1.13.984 2.257 2.103 2.583.293.086.637.137.798.394.092.147.1.328.131.497.156.85 1.043 1.496 1.903 1.387v-.004l7.436 8.94c.007.463.183.905.569 1.168.214.146.506.272.532.53.012.13-.052.254-.092.38-.12.386.018.84.335 1.094.317.253.792.288 1.144.086.005.835.745 1.596 1.582 1.635l7.658 9.204a2.988 2.988 0 0 0 2.304 1.077c.096 0 .19-.014.286-.023v-7.272l-5.457-6.56c.058-.074.11-.15.171-.222.281-.331.615-.61.97-.863l.143.336s1.663-.586 4.173-1.475v-5.484c-3.126 1.917-5.658 3.482-5.658 3.482l.036.084c-.073.021-.15.045-.216.063-.387.112-1.634.044-2.967.054l-7.461-8.97a138.173 138.173 0 0 0 6.046-1.829 42.731 42.731 0 0 0 .89-.3c.105-.034.209-.07.314-.106l.575-.2.34-.122a102.716 102.716 0 0 0 .891-.324 53.026 53.026 0 0 0 .872-.33l.58-.229.277-.111c.253-.103.5-.206.745-.31l.076-.032c.27-.116.534-.232.792-.35.07-.031.135-.063.204-.095.183-.084.365-.17.54-.254l.26-.13c.149-.076.297-.15.44-.225.092-.047.178-.096.266-.143a18.597 18.597 0 0 0 .634-.363c.117-.07.23-.14.34-.21.077-.05.153-.098.225-.148.108-.073.21-.146.308-.219.064-.046.128-.092.186-.138.103-.08.197-.16.288-.24.043-.038.091-.076.132-.115l.045-.048V81.126c-.15.141-.299.266-.451.429-3.007 3.215-5.128 23.82-5.207 24.585-.06.574-8.604 5.493-12.864 7.912a2.383 2.383 0 0 0-.6-1.58c-.444-.492-1.054-.808-1.676-1.037a.774.774 0 0 0-.269-.056l-11.245-13.517c.799-.87 1.564-1.773 2.252-2.754 4.114-5.862 5.688-12.967 4.433-20.008-1.255-7.041-5.19-13.173-11.08-17.268-5.89-4.095-13.027-5.663-20.105-4.413-7.074 1.25-13.235 5.166-17.35 11.028-8.493 12.101-5.51 28.823 6.648 37.275" mask="url(#f)"/>
            <path fill="#FFF" d="M162.9 79.015c-3.076 3.191-5.246 23.64-5.327 24.4-.08.758-15.573 9.176-15.573 9.176l2.18 2.409s16.51-4.015 19.48-7.483c2.518-2.94 8.34-26.98 8.34-26.98s-3.996-6.818-9.1-1.522" mask="url(#f)"/>
            <path fill="#FFBE9D" d="M200 192.742s1.188 2.336 1.787 3.074c.597.737 3.195-.934 3.213-1.539.02-.604-2.307-4.277-2.307-4.277" mask="url(#f)"/>
            <path fill="#000" d="M205.52 193.699c.56.86 1.48 2.57 1.48 2.57l-2.287 2.265-.598-.278s-.377 1.117-1.07 1.835c-.514.533-1.714 1.422-2.364 1.752-2.279 1.152-4.187 1.326-4.446 1.03-1.088-1.24 1.924-2.8 2.489-3.206 1.622-1.168 2.065-3.154 1.895-4.279-.122-.816-.347-.883.064-1.01 0 0 .346-.15.795.087.69.362 1.531.333 2.093-.241.32-.328.593-.734.672-1.209 0 0 .717-.178 1.278.684" mask="url(#f)"/>
            <path fill="#FFBE9D" d="M164.5 200.876s-.565 1.4-.494 2.32c.07.922 3.11.99 3.463.512.354-.477.531-4.708.531-4.708" mask="url(#f)"/>
            <path fill="#000" d="M168 204.31c0 1.024-.29 2.69-.29 2.69h-3.673l-.18-.6s-1.191.6-2.127.6h-3.1c-2.268 0-3.558-.283-3.615-.674-.24-1.637 2.472-1.563 3.177-1.563 2.027 0 4.221-.93 4.7-1.94.348-.733.193-.918.612-.781 0 0 .379.08.63.534.386.695 1.12 1.161 1.915 1.023.455-.078.912-.248 1.242-.586 0 0 .709.274.709 1.297" mask="url(#f)"/>
            <path fill="#CE181E" d="M183.67 142.552c-.022.132-2.987-3.233-3.02-3.091-1.178 5.889-6.66 25.584-8.482 30.75v.01c-.267.723-1.674 2.281-2.842 2.576-2.677.691-6.951-.216-7.293-5.292-.043-.559.085-1.17.021-1.83-.763-7.818 6.782-42.283 6.974-44.48.182-2.197 4.546-.612 5.767-1.018 6.094-2.003 10.47 14.137 8.874 22.375" mask="url(#f)"/>
            <path fill="#CE181E" d="M171.386 173.807c-1.184-3.707.614-8.051.614-8.051s-10.064-8.102-10.576-3.157c-.051.39-.426 3.741-.424 5.632.003 6.762 2.248 19.517 2.085 32.595v.853s1.68.35 4.63.32c.133 0 .277 0 .42-.012.841-8.143 2.66-10.558 3.523-21.7.212-2.731-.076-5.868-.272-6.48M194.387 167.318c-2.137-2.595-4.39-3.758-5.057-5.736-1.551-4.598 3.254-18.958 3.105-24.136.442-1.06 4.554-11.646-3.79-19.446 0 0-7.504 3.15-13.512 3.53-4.73.3-7.133-.16-7.133-.16s4.468 6.595 4.73 9.519c.442 4.966 5.547 30.669 6.27 32.313 1.649 3.744 3.47 5.217 4.073 5.984 4.206 5.356 9.666 12.329 17.13 23.116l.505.698s1.499-.503 4.292-2.378c-4.022-7.183-3.845-15.075-10.613-23.304" mask="url(#f)"/>
            <path fill="#FFF" d="M163.453 80.063c1.463-1.669 7.739-4.248 13.943-4.053 4.275.134 17.864 1.526 19.166 4.37.664 1.455.6 15.256-.374 20.39-.732 3.86-2.943 13.781-2.943 16.09 0 2.308 1.246 3.296.665 3.967-1.303 1.501-11.04 2.173-15.223 2.173-3.723 0-10.06-.987-10.38-2.173-.478-1.76.727-1.695.89-3.54.162-1.846 1.04-14.019-.051-15.788-1.73-2.808-4.357-10.767-4.49-12.883-.134-2.115-2.665-6.884-1.203-8.553" mask="url(#f)"/>
            <path fill="#FFBE9D" d="M172.563 69.287s-.044 5.226-.264 5.437c-.22.21-1.299.699-1.299.699s1.662 2.887 2.852 2.55c1.188-.337 8.148-2.478 8.148-2.478s-1.114-.434-1.114-.855c0-.422 1.057-8.64 1.057-8.64" mask="url(#f)"/>
            <path fill="#FFBE9D" d="M178.711 51c-1.06.295-3.854-.295-4.625.886-.772 1.18-1.445 4.034-1.735 4.821-.576 1.568-.95 3.243-1.369 4.858-.545 2.105-1.945 6.071.072 7.832.58.507 1.34.565 2.059.698.955.176 1.905.376 2.86.55 1.48.272 3.12.588 4.59.1 1.964-.65 3.04-3.407 3.546-5.28L187 54.74 178.711 51z" mask="url(#f)"/>
            <path fill="#FFBE9D" d="M183.004 65.946s-.057.508.27.86c.286.308.787.196 1.122.03.955-.472 1.527-1.602 1.598-2.706.083-1.3-.685-2.493-1.727-2.027-.608.273-.919 1.095-.836 1.802" mask="url(#f)"/>
            <path fill="#000" d="M185.456 61.044c-.338 1.106-1.223 3.623-2.162 3.378-.939-.244.382-4.183 1.195-5.765-1.183-.005-2.64-.2-3.064-1.381-.096-.266-.172-.61-.432-.67-.212-.05-.4.135-.583.262-.83.576-1.961.012-2.62-.775-.152-.18-.329-.39-.554-.374-.14.011-.258.107-.37.194-1.363 1.036-4.982.985-4.969-.838-1.192.649-1.964-.932-1.892-2.015.07-1.082.827-2.889 2.469-2.844-.082-1.33.892-2.164 1.879-2.975.986-.812 2.246-1.173 3.487-1.234 1.962-.096 4.194.772 4.863 2.751.049.143.098.303.219.38.135.087.306.039.46-.004 1.488-.427 3.203-.178 4.352.926 1.148 1.103 1.534 3.127.65 4.48 1.148.292 1.765 1.756 1.585 3.008-.18 1.252-.945 2.309-1.741 3.244 1.245.427 1.743 2.254 1.112 3.48-.632 1.228-2.253 1.894-3.547 1.692.299-1.266-.214-2.722-1.356-2.95M173.225 81s-.425 19.325-1.225 31.08l2.891 3.92 1.987-4.908s.838-14.179-1.88-29.957L173.225 81z" mask="url(#f)"/>
            <path fill="#FFF" d="M181.708 73s1.45 1.12 2.292 2.5c-.865 2.138-3.435 5.772-5.588 7.5-1.005-2.915-3.412-4.609-3.412-4.609M174 78.754s-1.83.85-2.918 3.246c0 0-.351-3.241.397-6.024 0 0 .986-1.938 1.402-1.976-.172 2.292 1.119 4.754 1.119 4.754" mask="url(#f)"/>
            <path stroke="#231F20" stroke-width="5.282" d="M131.673 90.957c-7.59 10.638-22.551 13.238-33.416 5.807-10.865-7.433-13.52-22.082-5.93-32.72 7.59-10.64 22.55-13.24 33.415-5.807 10.867 7.432 13.52 22.08 5.931 32.72z" mask="url(#f)"/>
            <path stroke="#231F20" stroke-linecap="round" stroke-linejoin="round" stroke-width="5.282" d="M127 96l35 43" mask="url(#f)"/>
            <path fill="#FFBE9D" d="M159.55 123s-1.808.57-2.743.844c-.61.178-3.503-.135-5.205.258-.82.19-1.675.483-2.206 1.145-.531.66-.566 1.788.13 2.27.197.137.465.253.489.494.012.123-.048.24-.085.356a.98.98 0 0 0 .309 1.022c.29.236.729.27 1.053.082.005.783.691 1.499 1.466 1.529-.03-.431.106-.904.459-1.148.34-.235.787-.207 1.196-.25a3.206 3.206 0 0 0 1.93-.928c.366-.37.637-.824.972-1.223a4.869 4.869 0 0 1 2.685-1.627" mask="url(#f)"/>
            <path fill="#FFF" d="M186.52 87.788c-.845 2.364-5.328 23.184-5.328 23.184s-4.387 1.077-7.146 2.477C171.908 114.534 157 123.587 157 123.587l1.484 3.413s26.535-9.195 27.698-9.813C187.345 116.57 198 90.283 198 85.592c0-2.762-2.288-5.592-2.288-5.592" mask="url(#f)"/>
            <path fill="#FFBE9D" d="M140.954 117.988c-.842.108-1.71-.536-1.864-1.383-.03-.168-.037-.348-.127-.495-.158-.256-.494-.306-.78-.392-1.096-.326-1.794-1.45-2.059-2.575-.14-.599-.187-1.237-.005-1.824.182-.588.62-1.116 1.205-1.285a.552.552 0 0 1 .352-.009c.113.042.195.14.267.238.339.452.593.968.746 1.515.11.396.192.848.52 1.091.222.163.511.196.757.318.495.245.744.808.927 1.334.278.802-.092 2.632.061 3.467M143.97 112c.11-.641-.092-1.422-.408-1.911-.316-.49-.748-.805-1.19-1.033-.118-.062-.276-.102-.346.044-.05.103-.02.245.024.351.169.399.522.584.703.972.067.146.108.313.162.47.2.574.604 1 1.055 1.107" mask="url(#f)"/>
            <path fill="#F2A181" d="M173 71s4.127.858 4.859.746c.73-.113-1.587 1.2-2.02 1.249-.435.048-2.839-.268-2.839-.268V71z" mask="url(#f)"/>
            <path fill="#EEE" d="M8.882 30h33.236C44.262 30 46 31.717 46 33.835v21.33C46 57.282 44.262 59 42.118 59H8.882C6.738 59 5 57.283 5 55.164v-21.33C5 31.717 6.738 30 8.882 30" mask="url(#f)"/>
            <path fill="#EEE" d="M42 49l10-2.74L43.084 44" mask="url(#f)"/>
            <path fill="#B5B7B9" d="M19 44h7v-2h-7zM15 42h11v-2H15zM11 50h30v-2H11zM11 53h30v-2H11zM15 40h11v-2H15zM22 38h4v-2h-4zM29 41a6 6 0 1 0 12 0 6 6 0 0 0-12 0" mask="url(#f)"/>
            <path fill="#FFF" d="M33.329 41.017a2.193 2.193 0 0 1-.974-1.83c0-1.208.96-2.187 2.145-2.187s2.145.98 2.145 2.188c0 .767-.388 1.439-.974 1.83A3.072 3.072 0 0 1 38 44.014v1.817A5.84 5.84 0 0 1 34.5 47a5.84 5.84 0 0 1-3.5-1.168v-1.817c0-1.459.994-2.675 2.329-2.998" mask="url(#f)"/>
            <path fill="#CE181E" d="M10.679 61.166a4.498 4.498 0 1 1-8.358-3.333 4.498 4.498 0 0 1 8.358 3.333" mask="url(#f)"/>
            <path stroke="#FFF" d="M5 59l.92 2L9 59.143" mask="url(#f)"/>
            <path fill="#CE181E" d="M225.635 42.728a4.499 4.499 0 1 1-8.27 3.544 4.499 4.499 0 0 1 8.27-3.544" mask="url(#f)"/>
            <path stroke="#FFF" d="M220 46.089l2.147.911.853-4" mask="url(#f)"/>
            <path fill="#CE181E" d="M37.5 29c-.276 0-.5-.247-.5-.552V24.55c0-.305.224-.551.5-.551s.5.246.5.551v3.897c0 .305-.224.552-.5.552" mask="url(#f)"/>
            <path fill="#CE181E" d="M39.448 26h-3.896c-.305 0-.552-.224-.552-.5s.247-.5.552-.5h3.896c.304 0 .552.224.552.5s-.248.5-.552.5M252.5 111c-.276 0-.5-.248-.5-.553v-3.895c0-.305.224-.552.5-.552.275 0 .5.247.5.552v3.895c0 .305-.225.553-.5.553" mask="url(#f)"/>
            <path fill="#CE181E" d="M254.448 109h-3.896c-.305 0-.552-.224-.552-.5 0-.275.247-.5.552-.5h3.896c.304 0 .552.225.552.5 0 .276-.248.5-.552.5" mask="url(#f)"/>
            <path fill="#B5B7B9" d="M202.19 47L180 39.883 184.81 26 207 33.118zM207 33l-22-7.5 14.013-5.5z" mask="url(#f)"/>
            <path fill="#FFF" d="M199.948 46L182 40.34 187.052 26 205 31.66z" mask="url(#f)"/>
            <path fill="#EEE" d="M184.69 25L180 39l13-2.917zM207 33l-4.925 14L193 36.907z" mask="url(#f)"/>
            <path fill="#EEE" d="M202 47l-22-7.5 14.014-5.5z" mask="url(#f)"/>
            <path fill="#C5C5C5" d="M180 39.82c1.131-.534 2.283-1.013 3.424-1.522 1.148-.487 2.299-.97 3.456-1.437 2.31-.945 4.638-1.84 6.97-2.727l.352-.134.2.314a283.06 283.06 0 0 1 3.909 6.276c.64 1.053 1.264 2.116 1.883 3.181.602 1.077 1.229 2.137 1.806 3.229-.753-.984-1.456-1.998-2.186-2.995-.71-1.01-1.417-2.021-2.109-3.042a280.31 280.31 0 0 1-4.078-6.171l.552.18c-2.34.87-4.683 1.73-7.043 2.54-1.18.41-2.365.805-3.552 1.195-1.195.37-2.379.768-3.584 1.112" mask="url(#f)"/>
            <path fill="gray" d="M58.322 78.87l-5.294 23.383a1.12 1.12 0 0 0 .927 1.357l16.479 2.378a1.113 1.113 0 0 0 1.244-.858l5.294-23.382a1.119 1.119 0 0 0-.928-1.357l-16.479-2.38a1.114 1.114 0 0 0-1.243.86" mask="url(#f)"/>
            <path fill="#FFF" d="M59.967 79L55 101.613 71.032 104 76 81.386z" mask="url(#f)"/>
            <path stroke="#D6D2D6" stroke-linecap="round" stroke-linejoin="round" stroke-width=".528" d="M75 83l-14-2M74 85l-14-2M68 88l-9-2M68 89l-9-2M67 91l-9-2M71 101l-9-2" mask="url(#f)"/>
            <path fill="#F2A181" d="M52.227 101.939c.926-.418 1.613-1.19 2.272-1.939l1.947-2.219c.257-.29.525-.61.554-.99-1.089-.085-1.79 1.268-2.878 1.348a21.307 21.307 0 0 1 2.162-4.915c.227-.377.473-.817.312-1.224-1.177.43-2.167 1.23-3.024 2.113a15.515 15.515 0 0 0-1.639 1.995c-1.437 2.08-2.327 4.467-2.933 6.892" mask="url(#f)"/>
            <path fill="#FFBE9D" d="M47.61 120.896L35.87 111s-5.464 7.403-3.407 14.545c1.013 3.513 2.283 5.255 2.835 6.921.515 1.557 4.048 23.596 3.785 25.208-.264 1.61-2.16 6.119-2.884 10.86-.872 5.702-.724 15.665-1.4 20.591-.675 4.926 3.878 5.76 4.13 4.093 2.139-14.245 7.791-27.825 8.582-34.946.79-7.122.47-20.162.098-37.376" mask="url(#f)"/>
            <path fill="#F2A181" d="M48.608 135.012L43 146.621a24.151 24.151 0 0 1 3.912 12.168c.095 2.24-.124 4.482-.055 6.723.004.16.03.33.075.488.752-3.32 1.312-6.058 1.531-7.84.614-4.99.618-12.921.423-23.16-.093.003-.185 0-.278.012" mask="url(#f)"/>
            <path fill="#FFBE9D" d="M39.323 189.073s-1.103 5.138-.805 5.793c.296.655 1.362 2.558 2.454 3.245 1.146.722 3.683 1.58 3.886 1.893.203.314.216.77-.146 1.05-.934.723-2.557 1.075-3.617.903-3.44-.56-3.797-2.058-5.801-2.299-.346-.04-.988.463-1.945-.019-.957-.483-1.422-1.355-1.34-2.175.142-1.415.95-2.581 1.523-3.627.574-1.048.98-5.837.98-5.837" mask="url(#f)"/>
            <path fill="#000" d="M45.769 201.716c.256-.428.321-1.076.083-1.233-.33-.22-1.505-.98-2.186-1.285-.68-.307-1.76-.577-1.38-.376.38.2-.32.951-.956.913-2.201-.132-3.824-1.561-5.077-1.867-1.81-.441-2.567-2.529-2.646-2.868-.343.212-1.138 1.893-1.3 2.421-.145.479-.406 1.351-.268 1.85.096.343.31 1.035.202 1.761 0 0 .355.268 1.3.459.597.12 1.4.02 1.4.02l.155-1.11s.493-.02 1.119.107c.627.126 1.649.709 1.71.78.251.293.452.827.784.99.88.434 1.767.64 2.887.705 2.359.133 3.736-.536 4.173-1.267" mask="url(#f)"/>
            <path fill="#FFBE9D" d="M63.78 201.432c-.253-.28-2.983-.725-4.263-1.26-1.22-.511-2.698-2.152-2.985-2.848-.288-.696-.22-4.225-.185-5.706.256-10.206 2.138-26.474 2.411-32.446.474-10.381-.872-21.095-4.86-37.76L39.052 110s-4.158 7.743-2.766 15.145c.808 4.295 4.365 4.957 4.967 6.625.601 1.67 9.584 28.583 9.584 28.583s-1.748 5.818-1.85 12.194c-.086 5.44 2.378 13.187 2.835 19.439.054 1.222.264 4.148-.096 5.079-.44 1.14-1.563 2.48-1.506 3.92.032.835.634 1.631 1.687 1.958 1.052.327 1.638-.282 2-.297 2.093-.087 2.673 1.356 6.286 1.354 1.115 0 2.731-.617 3.588-1.494.331-.339.253-.794 0-1.074" mask="url(#f)"/>
            <path fill="#000" d="M63.865 201.93c.205-.488.178-1.17-.094-1.295-.378-.171-1.72-.763-2.48-.966-.758-.204-1.93-.304-1.5-.159.427.145-.196 1.041-.87 1.109-2.326.232-4.237-.98-5.595-1.087-1.962-.155-2.681-2.194-2.814-2.532-.328.279-1.296 2.155-1.387 2.731-.083.52-.228 1.47-.01 1.964.151.34.476 1.023.47 1.795 0 0 .412.218 1.43.258.644.024 1.47-.214 1.47-.214v-1.179s.513-.103 1.188-.076c.676.025 1.51.374 1.918.684.319.243.655.653 1.033.748 1.087.276 1.87.355 3.053.233 2.493-.255 3.837-1.182 4.188-2.015M35.707 110.123c-1.022 1.106-4.668 7.094-4.706 11.969-.039 4.873 1.72 8 1.877 9.016 1.156 7.446 2.275 16.425 2.275 16.912 0 .487 4.287 3.306 10.053 2.949C55.858 150.308 60 147.558 60 147.558s-.504-18.037-2.146-26.928c-.824-4.458-4.408-11.63-4.408-11.63" mask="url(#f)"/>
            <path fill="#FFBE9D" d="M26 89.815s1.665 8.184 2.101 9.64c.437 1.457 2.596 10.704 4.643 10.543C34.79 109.837 46 100.576 46 100.576l-1.587-3.142-9.868 4.655S33.654 91.519 32.872 89" mask="url(#f)"/>
            <path fill="#F2A181" d="M30 95c1.063 3.857 3.244 7.922 3.896 10.912.13.602 7.088-1.994 7.104-4.674" mask="url(#f)"/>
            <path fill="#CE181E" d="M33.13 79s-3.288.347-4.954 1.608c-4.252 3.219-.962 14.901-.962 14.901s-.21.624 2.644.465c2.854-.158 5.142-.962 5.142-.962l-.825-9.571" mask="url(#f)"/>
            <path fill="#FFBE9D" d="M49.527 56.674c1.95 2.621 1.564 6.308 1.083 9.581-.242 1.655-.486 3.31-.73 4.965-.115.786-.269 1.645-.86 2.152-.595.511-1.447.503-2.22.468l.023 4.109c-2.26.057-4.522.066-6.783.029 0-.96-.202-1.918-.586-2.79-1.106-.022-1.845-1.173-2.279-2.228-.498-1.217-.861-2.487-1.213-3.758-.467-1.687-.916-3.4-.959-5.155-.042-1.754.36-3.578 1.434-4.933.734-.925 1.734-1.582 2.756-2.135 1.403-.759 3.087-1.356 4.533-.692" mask="url(#f)"/>
            <path fill="#000" d="M46.758 69.022c-.281-1.343-.261-2.1.197-2.995.152-.296.352-.576.626-.76a1.37 1.37 0 0 1 1.274-.127c.267.113.488.322.64.572.485-1.804.588-3.726.447-5.6-.222-2.971-2.09-5.267-4.816-6.342-5.048-1.989-12.3-.024-14.35 4.73-1.548 3.588-.763 8.77 2.2 11.78 2.625 2.663 6.4 3.054 9.883 2.505 1.782-.28 4.534-.112 5.455-2.437.072-.18-.088-.359-.278-.344-.722.053-1.226-.733-1.278-.982" mask="url(#f)"/>
            <path fill="#000" d="M47.958 61.947c.182.29.139.677.31.973.288.496.67.676 1.187.917.833.39.638 1.616.614 2.163.628-.422.73-1.57.882-2.155.17-.655.28-1.327.469-1.977.184-.632.502-1.229.56-1.894.205-2.299-1.223-5-2.95-6.29-1.256-.94-3.173-.901-4.592.055-.597.402-1.047 1.01-1.311 1.684-.114.29-.192.627-.051.904" mask="url(#f)"/>
            <path fill="#CE181E" d="M55.56 107.205c-.316-.467-1.043-1.025-1.304-1.54-.626-1.233-1.174-6.425-.959-7.75.231-1.422 1.488-2.187 2.054-5.352.73-4.076-.939-7.245-1.871-8.602-1.319-1.919-.537-1.908-.988-4.258-.082-.424-.176-.877-.466-1.171-.284-.292-2.25-1.191-2.636-1.25-3.665-.57-5.82-.126-9.524.036-1.833.08-3.663.296-5.462.693-1.992.44-3.728.97-4.137 3.676-.633 4.188-.1 8.42 1.17 12.393.842 2.632 5.872 11.74 4.625 13.501-.285.403-.997 1.167-1.084 1.67-.315 1.841 3.836 2.489 5.613 2.635 2.707.222 5.814.073 8.527-.055 2.056-.096 6.553-.815 6.872-3.359.062-.499-.184-.902-.43-1.267" mask="url(#f)"/>
            <path fill="#000" d="M36.947 70.109c-1.404-.415-2.915.41-3.85 1.578-1.08 1.35-1.548 3.448-.54 4.856.378.526.916.898 1.465 1.218 1.672.972 3.653 1.544 5.511 1.068s3.49-2.211 3.467-4.209c-.02-1.807-1.284-3.317-2.562-4.536" mask="url(#f)"/>
            <path fill="#FFBE9D" d="M52 91.744S58.737 108 61.66 108C63.786 108 69 92.993 69 92.993l-3.295-1.557-3.673 6.285L58.312 86" mask="url(#f)"/>
            <path fill="#FFBE9D" d="M65 92.274s1.022-1.705.948-2.914c-.028-.462-.288-2.657-.071-3.089.216-.431.735-1.844 1.03-2.119.297-.274 1.393-.716 1.661-.52.268.197.602-.705 1.046-.627.445.078.815.471.815.902 0 .432.593.51.666.825.075.313.037.588.149.824.111.234.44.118.556.706.107.537-.037.588 0 .863s.259.25.185.772c-.074.523-.413 1.201-.708 1.79-.297.589-.91 1.324-1.721 1.845-.402.258-.621.706-1.004 1.468" mask="url(#f)"/>
            <path fill="#000" d="M67.557 79.262c-.06-.146-.226-.393-.421-.178-.195.215-.135.584-.094.734l1.442 5.113s.116.209.34-.099c.242-.333.164-.5.164-.5s-1.371-4.923-1.431-5.07" mask="url(#f)"/>
            <path fill="#F2A181" d="M68.76 85.06c-.365.642-.789.848-1.17 1.2-.298.277-.261.455-.59.74.576-.042.478-.378 1.226-.909.346-.246.704-.512.772-.93.023-.145-.15-.223-.238-.1" mask="url(#f)"/>
            <path fill="#CE181E" d="M45 77.06c1.828.093 7.15-.82 10.107 2.207 2.476 2.537 3.896 9.186 4.893 11.883-2.481 2.476-4.873 4.474-8.632 3.67-.142-.104-2.008-5.852-3.367-6.362" mask="url(#f)"/>
        </g>
    </g>
</svg>
