<svg xmlns="http://www.w3.org/2000/svg" xmlns:xlink="http://www.w3.org/1999/xlink" width="350" height="240" viewBox="0 0 350 240">
    <defs>
        <path id="a" d="M.305.088h11.448V37.22H.305z"/>
        <path id="c" d="M142.076.019c-.22 0-22.385.195-50.8 9.525C65.043 18.158 27.943 36.54.163 75.202a.763.763 0 0 0-.06.788c.05.099.123.188.216.258a.718.718 0 0 0 1.02-.16C28.874 37.768 65.66 19.534 91.67 10.985c28.213-9.271 50.192-9.47 50.41-9.47a.738.738 0 0 0 .727-.75.738.738 0 0 0-.73-.745h-.002"/>
        <path id="e" d="M.438 4.631L.57 5.688c4.451-.575 11.38.741 18.088 2.058 10.756 2.11 20.951 4.22 19.485-1.461C37.005 1.872 32.8.47 27.424.47 18.827.47 7.241 4.055.438 4.63"/>
        <path id="g" d="M4.205.83L.54 1.706C1.749 1.44 7.754.385 11.582 4.917c4.785 5.663 7.424 7.413 10.216 9.386 4.188 2.96 8.877 3.551 8.787-.068C30.413 7.357 14.28.703 5.999.703c-.65 0-1.253.041-1.794.126m-3.88.93l.215-.052c-.14.031-.216.052-.216.052"/>
        <path id="i" d="M20.905 5.326c-2.552 3.195-4.974 6.09-9.143 14.029C8.77 25.056 3.29 26.82 1.255 27.293l3.666-.716c7.37-1.563 25.047-16.43 24.569-24.518C29.409.687 28.808.084 27.899.084c-1.706 0-4.499 2.116-6.994 5.242zM.467 27.447s.292-.039.788-.154l-.788.154z"/>
        <path id="k" d="M4.863.687l-4 1.061c1.326-.322 7.95-1.539 13.106 4.713 6.447 7.814 9.755 10.267 13.278 13.028 5.285 4.142 10.713 5.099 9.963.206C35.762 10.255 15.689.57 6.463.57c-.578 0-1.115.038-1.6.116M.625 1.811l.237-.063c-.155.038-.237.063-.237.063"/>
        <path id="m" d="M21.127 6.166c-2.482 3.8-4.86 7.24-8.457 16.757-2.586 6.843-8.788 8.8-11.11 9.303l4.228-.747c8.462-1.654 26.884-19.144 24.954-29C30.407.772 29.566.024 28.455.023c-2.017 0-4.928 2.467-7.328 6.143zM.66 32.385s.336-.037.898-.159l-.898.159z"/>
        <path id="o" d="M3.78.37L.417 1.645C1.542 1.252 7.258-.29 13.643 6.03c7.984 7.903 11.665 10.333 15.622 13.075 5.937 4.112 11.146 4.888 9.145-.195C34.624 9.296 14.447.171 5.722.172c-.733 0-1.387.065-1.941.199M.215 1.72l.201-.076c-.131.046-.2.076-.2.076"/>
        <path id="q" d="M11.013 7.765c-1.14 4.267-2.289 8.137-2.862 18.72-.412 7.607-5.292 10.01-7.183 10.658l3.486-.994c6.935-2.161 18.291-22.096 13.951-32.821-.731-1.808-1.635-2.6-2.576-2.602-1.782 0-3.696 2.847-4.816 7.039zM.226 37.354s.283-.054.742-.21l-.742.21z"/>
        <path id="s" d="M4.265.513L.252 1.833c1.335-.403 8.085-1.96 14.746 5.234 8.324 8.991 12.294 11.789 16.55 14.94 6.382 4.728 12.292 5.734 10.546.038C38.75 11.148 16.05.342 6.18.342c-.709 0-1.35.055-1.915.17m-4.25 1.4l.237-.08a4.04 4.04 0 0 0-.237.08"/>
        <path id="u" d="M16.826 7.385c-1.83 4.494-3.625 8.565-5.46 19.77-1.32 8.054-7.422 10.466-9.758 11.102l4.281-.957c8.54-2.098 24.302-22.92 20.272-34.415C25.47.92 24.453.055 23.305.055c-2.125 0-4.698 2.953-6.48 7.33zM.696 38.461s.345-.05.912-.204l-.912.204z"/>
        <path id="w" d="M23.601.787c-2.348 6.583-5.254 8.472-7.492 11.174-2.307 2.786-.76 8.734.763 10.342 2.687 2.834 3.636 32.667 3.636 32.667s-12.5.517-20.29 33.965l5.488 4.451h5.674l-2.287-2.758-1.576-.636-1.827-4.114S16.859 67.305 25.85 58.161c1.742-3.139 5.47-16.815 8.636-55.5C33.25.912 30.102.516 27.51.516c-2.143 0-3.908.27-3.908.27"/>
        <linearGradient id="x" x1="0%" x2="100.001%" y1="50%" y2="50%">
            <stop offset="0%" stop-color="#FBD1C3"/>
            <stop offset="100%" stop-color="#F6AA91"/>
        </linearGradient>
        <path id="z" d="M6.162 2.393c-1.483 8.104-9.37 9.93-3.54 19.454 2.008 3.278 7.324 36.559 7.324 36.559s-9.534 3.967-4.41 36.972h11.099l-2.146-2.796-6.746-1.292s4.985-24.541 6.242-29.736c3.092-6.576 9.767-25.29 2.269-60.18C15.669.483 14.64.16 13.456.16c-3.111 0-7.294 2.233-7.294 2.233"/>
        <linearGradient id="A" x1="44.447%" x2="50.415%" y1="90.418%" y2="50.238%">
            <stop offset="0%" stop-color="#FBD1C3"/>
            <stop offset="100%" stop-color="#F6AA91"/>
        </linearGradient>
        <path id="C" d="M.638 2.948l2.64 8.412c.627 1.995 2.059 3.704 4.021 4.726 1.38.716 2.642 1.017 2.453-.432L6.829 3.63C6.452 2.016 5.32 1.003 4.05.366A2.528 2.528 0 0 0 2.912.093C1.417.093.132 1.445.638 2.948"/>
        <linearGradient id="D" x1="26.034%" x2="68.03%" y1="63.661%" y2="41.975%">
            <stop offset="0%" stop-color="#FBD1C3"/>
            <stop offset="100%" stop-color="#F6AA91"/>
        </linearGradient>
        <path id="F" d="M.97 1.341C.04 2.483-.094 3.408 1.346 3.833c0 0-1.268 1.334-.484 2.683.785 1.348 2.425.236 2.51 2.979L5.598.885C5.278.456 4.601.262 3.85.262 2.762.26 1.519.666.97 1.34"/>
        <linearGradient id="G" x1=".006%" x2="100.001%" y1="50%" y2="50%">
            <stop offset="0%" stop-color="#FBD1C3"/>
            <stop offset="100%" stop-color="#F6AA91"/>
        </linearGradient>
        <path id="I" d="M3.893.348c-1.039.799.394 1.813-.419 4.25-.657 1.972-1.456.975-2.618 3.318-1.162 2.341 1.31 2.463 1.475 5.59l1.328-.274c.326-3.813 1.443-5.176 1.66-7.515C5.683 1.789 4.314.33 3.949.33a.086.086 0 0 0-.056.017"/>
        <linearGradient id="J" x1="-.001%" y1="50%" y2="50%">
            <stop offset="0%" stop-color="#FBD1C3"/>
            <stop offset="100%" stop-color="#F6AA91"/>
        </linearGradient>
        <path id="L" d="M1.361 1.62c-.2 2.276-1.636 2.564-.634 4.841 0 0 1.704-1.154 1.927-4.134C2.762.887 2.49.375 2.167.375c-.344 0-.747.585-.806 1.246"/>
        <linearGradient id="M" x1="-.004%" x2="99.999%" y1="49.998%" y2="49.998%">
            <stop offset="0%" stop-color="#FBD1C3"/>
            <stop offset="100%" stop-color="#F6AA91"/>
        </linearGradient>
        <path id="O" d="M.298 3.97l.933 7.238 7.135.302s.123-7.048.098-10.064C8.46.904 7.86.663 6.986.663 4.89.663 1.206 2.044.298 3.969"/>
        <linearGradient id="P" x1="-116.479%" x2="79.433%" y1="49.999%" y2="49.999%">
            <stop offset="0%" stop-color="#FBD1C3"/>
            <stop offset="100%" stop-color="#F6AA91"/>
        </linearGradient>
        <path id="R" d="M2.974 4.883L.167 16.453a3.533 3.533 0 0 0 .429 2.906l.689 1.079c.778 1.22 2.414 1.735 3.848 1.21l4.9-1.79c1.299-.476 2.25-1.516 2.533-2.77l.415-1.827c.728 2.164 3.513-2.277 3.517-3.561.004-1.131-.861-1.806-2.763.234l1.385-6.118C15.784 2.635 12.284.322 8.844.322c-2.593 0-5.153 1.314-5.87 4.56"/>
        <linearGradient id="S" x1=".002%" x2="125.077%" y1="50%" y2="50%">
            <stop offset="0%" stop-color="#FBD1C3"/>
            <stop offset="100%" stop-color="#F6AA91"/>
        </linearGradient>
        <path id="U" d="M.227.196h27.97v88.448H.227z"/>
        <path id="W" d="M1.83 3.236c2.15 2.243 2.331 2.537 2.331 2.537s-2.232 2.3-.806 4.741C4.781 12.957 9.53 12.74 9.53 12.74l2.777-2.247L.96.258s-1.28.733.87 2.978"/>
        <linearGradient id="X" x1="-34.2%" x2="101.554%" y1="-7.548%" y2="121.488%">
            <stop offset="0%" stop-color="#FBD1C3"/>
            <stop offset="100%" stop-color="#F6AA91"/>
        </linearGradient>
        <path id="Z" d="M.335 7.014c1.1 4.006 5.01 5.27 6.749 4.533 2.094-.889 1.092-4.092 1.001-6.639-.089-2.547.458-3.922.458-3.922L4.515.174c-.11 2.652-4.809 4.548-4.18 6.84"/>
        <linearGradient id="aa" x1="-33.457%" x2="200.333%" y1="50.001%" y2="50.001%">
            <stop offset="0%" stop-color="#FBD1C3"/>
            <stop offset="100%" stop-color="#F6AA91"/>
        </linearGradient>
    </defs>
    <g fill="none" fill-rule="evenodd">
        <path d="M0 0h350v240H0z"/>
        <path fill="#C4C4C4" d="M196.49 76.507c-15.938-3.528-19.251-27.605 1.88-47.884l-1.88 47.884z"/>
        <path fill="#C4C4C4" d="M198.253 55.85a.442.442 0 0 0 .363-.718l-8.851-11.19a.44.44 0 0 0-.62-.071.444.444 0 0 0-.072.622l8.852 11.19a.44.44 0 0 0 .328.167M197.814 67.045a.444.444 0 0 0 .355-.729l-9.76-11.597a.44.44 0 0 0-.623-.053.445.445 0 0 0-.052.625l9.76 11.597c.083.099.2.152.32.157"/>
        <path fill="#C4C4C4" d="M196.49 76.507c16.167-2.26 21.357-26.002 1.88-47.884l-1.88 47.884zM132.705 188.178c-10.275 26.732-52.664 26.151-82.076-15.85l82.076 15.85z"/>
        <path fill="#C4C4C4" d="M97.548 179.689a.772.772 0 0 0-1.143-.82l-21.622 12.42a.777.777 0 0 0-.287 1.057c.212.37.684.5 1.055.287l21.621-12.418a.77.77 0 0 0 .376-.526M116.736 183.394a.774.774 0 0 0-1.164-.808L93.01 196.475a.777.777 0 0 0-.255 1.066c.223.366.7.48 1.063.257l22.564-13.89a.777.777 0 0 0 .355-.514"/>
        <path fill="#C4C4C4" d="M132.705 188.178c.351-28.649-39.223-43.897-82.076-15.85l82.076 15.85z"/>
        <path fill="#EEE" d="M210.672 184.297a.733.733 0 0 1-.472-.614c-4.63-46.912 10.97-85.308 24.872-109.256 15.06-25.943 31.446-41.011 31.61-41.16a.732.732 0 1 1 .984 1.087c-.162.148-16.41 15.095-31.356 40.857-13.78 23.752-29.244 61.827-24.653 108.327a.734.734 0 0 1-.985.76"/>
        <path fill="#EEE" d="M258.094 44.494l-.874-.775c7.48-8.15 18.456-31.232 29.07-23.824 8.534 5.956-20.734 15.638-28.196 24.599M252.311 50.353c4.54-5.736 22.973-12.412 28.236-6.821 2.566 2.727-1.213 5.32-6.27 5.762-3.373.294-6.48.662-13.836-.588-6.57-1.117-10.278 4.884-10.278 4.884l2.148-3.237z"/>
        <path fill="#EEE" d="M252.311 50.353c4.357-5.924 7.808-27.93 2.368-33.288-2.653-2.613-4.41 2.049-4.166 7.917.163 3.91.23 7.527 2.208 15.825 1.767 7.412-3.091 13.073-3.091 13.073l2.681-3.527zM241.59 65.729c5.249-6.516 28.844-14.116 36.61-7.777 3.787 3.093-.882 6.04-7.547 6.547-4.443.34-8.525.76-18.478-.65-8.89-1.26-12.997 5.556-12.997 5.556l2.412-3.676z"/>
        <path fill="#EEE" d="M241.59 65.729c4.98-6.729 6.543-31.707-1.427-37.782-3.888-2.962-5.582 2.331-4.451 8.99.754 4.438 1.34 8.542 5.111 17.957 3.369 8.41-2.314 14.84-2.314 14.84l3.08-4.005zM223.883 99.112c4.208-6.181 28.507-14.608 38.699-9.492 4.97 2.496.52 5.451-6.751 6.37-4.846.612-9.272 1.272-20.667.706-10.178-.504-13.045 5.865-13.045 5.865l1.764-3.449z"/>
        <path fill="#EEE" d="M223.883 99.112c3.857-6.352-.604-28.754-10.957-33.62-5.049-2.374-5.615 2.469-2.709 8.333 1.938 3.908 3.607 7.53 10.128 15.67 5.823 7.272 1.113 13.407 1.113 13.407l2.425-3.79zM231.855 83.186c5.15-6.944 32.039-15.854 42.413-9.695 5.06 3.004-.014 6.251-7.891 7.083-5.252.555-10.057 1.176-22.195.188-10.841-.883-14.575 6.316-14.575 6.316l2.248-3.892z"/>
        <path fill="#EEE" d="M231.855 83.186c4.792-7.15 2.36-32.908-8.213-38.785-5.156-2.867-6.27 2.655-3.771 9.45 1.664 4.529 3.074 8.722 9.202 18.23 5.474 8.49-.21 15.367-.21 15.367l2.992-4.262z"/>
        <path fill="#C4C4C4" d="M219.103 78.65c-16.733-9.173-12.622-37.265 17.674-53.1l-17.674 53.1z"/>
        <path fill="#C4C4C4" d="M227.795 56.054a.518.518 0 0 0 .641-.687l-6.292-15.447a.516.516 0 1 0-.954.391l6.29 15.448c.06.145.178.25.315.295M223.663 68.468c.118.04.25.037.373-.017a.52.52 0 0 0 .261-.684l-7.178-16.203a.516.516 0 1 0-.943.42l7.178 16.203a.516.516 0 0 0 .309.281"/>
        <path fill="#C4C4C4" d="M219.103 78.65c18.869 2.753 32.408-22.18 17.674-53.1l-17.674 53.1z"/>
        <path fill="#EEE" d="M187.896 174.182a.728.728 0 0 1-.757-.157c-34.034-32.505-47.2-71.807-52.252-99.053-5.474-29.515-2.864-51.661-2.837-51.882a.733.733 0 0 1 .816-.639c.4.05.685.416.636.819-.026.218-2.608 22.18 2.833 51.485 5.017 27.017 18.079 65.987 51.813 98.206a.736.736 0 0 1-.252 1.221"/>
        <g transform="translate(129.951)">
            <mask id="b" fill="#fff">
                <use xlink:href="#a"/>
            </mask>
            <path fill="#EEE" d="M2.898 37.22l-1.166-.016C2.095 26.133-4.61 1.46 8.25.12c10.342-1.076-5.53 25.425-5.352 37.1" mask="url(#b)"/>
        </g>
        <path fill="#EEE" d="M132.281 45.445c-.293-7.32 9.326-24.448 16.951-23.657 3.719.384 2.543 4.823-1.001 8.471-2.362 2.431-4.477 4.744-10.862 8.613-5.704 3.457-4.609 10.432-4.609 10.432l-.479-3.859z"/>
        <path fill="#EEE" d="M132.281 45.445c-.554-7.34-12.258-26.27-19.867-26.768-3.71-.242-2.007 4.44 1.996 8.725 2.668 2.856 5.072 5.551 11.97 10.543 6.161 4.457 6.164 11.928 6.164 11.928l-.263-4.428zM134.165 64.114c-.265-8.374 12.665-29.582 22.673-29.866 4.881-.138 3.261 5.152-1.457 9.902-3.145 3.166-5.963 6.158-14.42 11.608-7.554 4.867-6.232 12.72-6.232 12.72l-.564-4.364z"/>
        <path fill="#EEE" d="M134.165 64.114c-.606-8.358-15.675-28.305-25.666-27.687-4.873.302-2.712 5.42 2.478 9.725 3.458 2.868 6.573 5.592 15.557 10.256 8.024 4.165 7.904 12.757 7.904 12.757l-.273-5.051zM142.474 100.999c-.835-7.439 12.09-29.735 23.14-32.533 5.388-1.365 3.94 3.789-.97 9.245-3.273 3.638-6.196 7.036-15.196 14.07-8.039 6.283-6.066 12.986-6.066 12.986l-.908-3.768z"/>
        <path fill="#EEE" d="M142.474 100.999c-1.212-7.338-19.168-21.387-30.177-18.294-5.37 1.509-2.648 5.549 3.37 8.087 4.01 1.692 7.632 3.342 17.868 5.239 9.144 1.695 9.567 9.426 9.567 9.426l-.628-4.458zM138.15 83.713c-.617-8.633 13.955-32.991 25.82-35.118 5.788-1.038 4.057 4.743-1.369 10.532-3.617 3.86-6.852 7.478-16.69 14.678-8.787 6.43-6.932 14.329-6.932 14.329l-.83-4.42z"/>
        <path fill="#EEE" d="M138.15 83.713c-1.023-8.554-19.627-26.474-31.46-24.003-5.771 1.206-3.021 6.118 3.293 9.629 4.208 2.34 8.003 4.594 18.832 7.783 9.672 2.849 9.842 11.779 9.842 11.779l-.507-5.188zM142.914 196.288a.733.733 0 0 0 .4-.663c-.603-47.138-20.365-83.553-36.838-105.8-17.844-24.101-35.8-37.246-35.98-37.376a.73.73 0 0 0-1.022.165.736.736 0 0 0 .165 1.025c.177.13 17.982 13.169 35.694 37.102 16.33 22.067 35.92 58.18 36.517 104.902a.733.733 0 0 0 1.064.645"/>
        <path fill="#EEE" d="M80.277 62.648l.782-.869c-8.338-7.263-21.807-28.976-31.532-20.43-7.82 6.873 22.34 13.226 30.75 21.299M86.673 67.825c-5.148-5.194-24.208-9.771-28.817-3.626-2.248 2.996 1.795 5.15 6.871 5.026 3.384-.084 6.513-.066 13.684-2.13 6.404-1.843 10.756 3.707 10.756 3.707l-2.494-2.977z"/>
        <path fill="#EEE" d="M86.673 67.825c-4.987-5.4-10.858-26.884-6.046-32.817 2.347-2.893 4.61 1.544 5.018 7.402.272 3.904.606 7.506-.438 15.973-.934 7.564 4.522 12.647 4.522 12.647l-3.056-3.205zM99.033 81.908c-5.939-5.89-30.23-10.808-37.244-3.64-3.422 3.495 1.545 5.902 8.226 5.663 4.452-.16 8.556-.197 18.29-2.71 8.695-2.243 13.533 4.071 13.533 4.071l-2.805-3.384z"/>
        <path fill="#EEE" d="M99.033 81.908c-5.695-6.13-10.02-30.78-2.773-37.706 3.535-3.378 5.806 1.692 5.42 8.436-.255 4.495-.384 8.64-3.086 18.417-2.414 8.734 3.946 14.49 3.946 14.49l-3.507-3.637zM120.334 113.107c-4.868-5.673-29.951-11.335-39.512-5.112-4.663 3.035.088 5.475 7.416 5.575 4.884.068 9.355.23 20.617-1.604 10.059-1.638 13.614 4.372 13.614 4.372l-2.135-3.231z"/>
        <path fill="#EEE" d="M120.334 113.107c-4.538-5.882-2.59-28.643 7.159-34.634 4.754-2.923 5.855 1.826 3.617 7.978-1.492 4.1-2.75 7.887-8.326 16.704-4.981 7.876.38 13.447.38 13.447l-2.83-3.495zM110.645 98.17c-5.89-6.326-33.6-12.178-43.225-4.9-4.695 3.55.706 6.21 8.628 6.158 5.28-.035 10.125.047 22.077-2.29 10.676-2.089 15.186 4.649 15.186 4.649l-2.666-3.617z"/>
        <path fill="#EEE" d="M110.645 98.17c-5.556-6.57-5.996-32.44 3.859-39.461 4.806-3.425 6.525 1.939 4.796 8.97-1.153 4.686-2.087 9.01-7.123 19.143-4.497 9.05 1.913 15.25 1.913 15.25l-3.445-3.902z"/>
        <path fill="#C4C4C4" d="M131.39 96.607c-17.203 6.126-34.566-14.745-26.497-46.54l26.498 46.54z"/>
        <path fill="#C4C4C4" d="M120.862 75.964a.496.496 0 0 0-.08-.897l-15.004-5.354a.495.495 0 0 0-.33.934L120.451 76a.49.49 0 0 0 .41-.036M127.057 86.844a.496.496 0 0 0-.094-.902l-16.108-5.2a.496.496 0 0 0-.303.943l16.108 5.201c.138.044.28.025.397-.042"/>
        <path fill="#C4C4C4" d="M131.39 96.607c14-11.753 4.902-37.359-26.497-46.54l26.498 46.54z"/>
        <g transform="translate(161 119)">
            <mask id="d" fill="#fff">
                <use xlink:href="#c"/>
            </mask>
            <path d="M142.076.019c-.22 0-22.385.195-50.8 9.525C65.043 18.158 27.943 36.54.163 75.202a.763.763 0 0 0-.06.788c.05.099.123.188.216.258a.718.718 0 0 0 1.02-.16C28.874 37.768 65.66 19.534 91.67 10.985c28.213-9.271 50.192-9.47 50.41-9.47a.738.738 0 0 0 .727-.75.738.738 0 0 0-.73-.745h-.002" mask="url(#d)"/>
        </g>
        <g transform="translate(288 116)">
            <mask id="f" fill="#fff">
                <use xlink:href="#e"/>
            </mask>
            <path d="M.438 4.631L.57 5.688c4.451-.575 11.38.741 18.088 2.058 10.756 2.11 20.951 4.22 19.485-1.461C37.005 1.872 32.8.47 27.424.47 18.827.47 7.241 4.055.438 4.63" mask="url(#f)"/>
        </g>
        <g transform="translate(276 122)">
            <mask id="h" fill="#fff">
                <use xlink:href="#g"/>
            </mask>
            <path d="M4.205.83L.54 1.706C1.749 1.44 7.754.385 11.582 4.917c4.785 5.663 7.424 7.413 10.216 9.386 4.188 2.96 8.877 3.551 8.787-.068C30.413 7.357 14.28.703 5.999.703c-.65 0-1.253.041-1.794.126m-3.88.93l.215-.052c-.14.031-.216.052-.216.052" mask="url(#h)"/>
        </g>
        <g transform="translate(275 97)">
            <mask id="j" fill="#fff">
                <use xlink:href="#i"/>
            </mask>
            <path d="M20.905 5.326c-2.552 3.195-4.974 6.09-9.143 14.029C8.77 25.056 3.29 26.82 1.255 27.293l3.666-.716c7.37-1.563 25.047-16.43 24.569-24.518C29.409.687 28.808.084 27.899.084c-1.706 0-4.499 2.116-6.994 5.242zM.467 27.447s.292-.039.788-.154l-.788.154z" mask="url(#j)"/>
        </g>
        <g transform="translate(258 126)">
            <mask id="l" fill="#fff">
                <use xlink:href="#k"/>
            </mask>
            <path d="M4.863.687l-4 1.061c1.326-.322 7.95-1.539 13.106 4.713 6.447 7.814 9.755 10.267 13.278 13.028 5.285 4.142 10.713 5.099 9.963.206C35.762 10.255 15.689.57 6.463.57c-.578 0-1.115.038-1.6.116M.625 1.811l.237-.063c-.155.038-.237.063-.237.063" mask="url(#l)"/>
        </g>
        <g transform="translate(256 95)">
            <mask id="n" fill="#fff">
                <use xlink:href="#m"/>
            </mask>
            <path d="M21.127 6.166c-2.482 3.8-4.86 7.24-8.457 16.757-2.586 6.843-8.788 8.8-11.11 9.303l4.228-.747c8.462-1.654 26.884-19.144 24.954-29C30.407.772 29.566.024 28.455.023c-2.017 0-4.928 2.467-7.328 6.143zM.66 32.385s.336-.037.898-.159l-.898.159z" mask="url(#n)"/>
        </g>
        <g transform="translate(223 139)">
            <mask id="p" fill="#fff">
                <use xlink:href="#o"/>
            </mask>
            <path d="M3.78.37L.417 1.645C1.542 1.252 7.258-.29 13.643 6.03c7.984 7.903 11.665 10.333 15.622 13.075 5.937 4.112 11.146 4.888 9.145-.195C34.624 9.296 14.447.171 5.722.172c-.733 0-1.387.065-1.941.199M.215 1.72l.201-.076c-.131.046-.2.076-.2.076" mask="url(#p)"/>
        </g>
        <g transform="translate(222 103)">
            <mask id="r" fill="#fff">
                <use xlink:href="#q"/>
            </mask>
            <path d="M11.013 7.765c-1.14 4.267-2.289 8.137-2.862 18.72-.412 7.607-5.292 10.01-7.183 10.658l3.486-.994c6.935-2.161 18.291-22.096 13.951-32.821-.731-1.808-1.635-2.6-2.576-2.602-1.782 0-3.696 2.847-4.816 7.039zM.226 37.354s.283-.054.742-.21l-.742.21z" mask="url(#r)"/>
        </g>
        <g transform="translate(239 133)">
            <mask id="t" fill="#fff">
                <use xlink:href="#s"/>
            </mask>
            <path d="M4.265.513L.252 1.833c1.335-.403 8.085-1.96 14.746 5.234 8.324 8.991 12.294 11.789 16.55 14.94 6.382 4.728 12.292 5.734 10.546.038C38.75 11.148 16.05.342 6.18.342c-.709 0-1.35.055-1.915.17m-4.25 1.4l.237-.08a4.04 4.04 0 0 0-.237.08" mask="url(#t)"/>
        </g>
        <g transform="translate(238 96)">
            <mask id="v" fill="#fff">
                <use xlink:href="#u"/>
            </mask>
            <path d="M16.826 7.385c-1.83 4.494-3.625 8.565-5.46 19.77-1.32 8.054-7.422 10.466-9.758 11.102l4.281-.957c8.54-2.098 24.302-22.92 20.272-34.415C25.47.92 24.453.055 23.305.055c-2.125 0-4.698 2.953-6.48 7.33zM.696 38.461s.345-.05.912-.204l-.912.204z" mask="url(#v)"/>
        </g>
        <g>
            <path fill="#EEE" d="M188.402 202.963a.737.737 0 0 0-.061-.774c-27.926-38.002-65.22-56.07-91.589-64.536-28.565-9.171-50.845-9.363-51.068-9.363a.735.735 0 0 0-.005 1.47c.22.001 22.315.196 50.675 9.309 26.147 8.401 63.126 26.324 90.806 63.991a.732.732 0 0 0 1.242-.097"/>
            <path fill="#EEE" d="M59.589 130.867l.133-1.164c-11.021-1.033-34.632-10.82-37.581 1.822-2.372 10.167 25.898-2.306 37.448-.658M67.814 131.337c-7.218-1.214-25.41 6.211-25.588 13.906-.088 3.754 4.46 3.142 8.523.071 2.707-2.047 5.268-3.862 9.909-9.736 4.145-5.247 10.92-3.277 10.92-3.277l-3.764-.964z"/>
            <path fill="#EEE" d="M67.814 131.337c-7.207-1.477-24.493-15.522-24.026-23.164.228-3.728 4.653-1.44 8.396 3.087 2.494 3.018 4.862 5.753 8.94 13.253 3.642 6.7 11.045 7.645 11.045 7.645l-4.355-.82zM86.08 135.565c-8.266-1.318-30.919 8.89-32.463 18.826-.753 4.845 4.695 3.898 9.999-.204 3.535-2.735 6.856-5.165 13.324-12.904 5.778-6.912 13.395-4.604 13.395-4.604l-4.255-1.114z"/>
            <path fill="#EEE" d="M86.08 135.565c-8.207-1.656-26.078-19.18-24.205-29.056.914-4.818 5.716-2.02 9.327 3.693 2.407 3.807 4.715 7.254 8.203 16.79 3.117 8.519 11.649 9.482 11.649 9.482l-4.974-.909zM121.593 148.491c-7.269-1.769-30.999 8.297-35.166 18.953-2.033 5.197 3.258 4.403 9.286.199 4.019-2.802 7.756-5.286 15.863-13.365 7.243-7.218 13.637-4.408 13.637-4.408l-3.62-1.379z"/>
            <path fill="#EEE" d="M121.593 148.491c-7.12-2.132-18.781-21.79-14.326-32.368 2.173-5.16 5.833-1.94 7.59 4.375 1.172 4.21 2.35 8.025 2.94 18.462.525 9.323 8.136 10.72 8.136 10.72l-4.34-1.189zM105.005 142.005c-8.48-1.702-34.461 9.746-38.067 21.299-1.76 5.635 4.19 4.64 10.613-.037 4.28-3.118 8.276-5.884 16.653-14.779 7.483-7.943 15.078-5.1 15.078-5.1l-4.277-1.383z"/>
            <path fill="#EEE" d="M105.005 142.005c-8.35-2.097-23.765-22.888-19.823-34.366 1.923-5.597 6.445-2.239 9.128 4.494 1.789 4.487 3.545 8.553 5.34 19.743 1.603 9.994 10.433 11.288 10.433 11.288l-5.078-1.16z"/>
            <path fill="#C4C4C4" d="M298.643 108.88c-39.472 1.533-70.698 20.964-91.98 57.72l-25.614-34.548c19.064-44.338 51.63-71.512 95.2-78.976l22.394 55.804"/>
            <path fill="#C4C4C4" d="M290.561 98.149c-4.63-11.223-9.257-22.447-13.886-33.671-3.551.517-7.636-1.837-9.202-5.477-35.084 9.073-61.346 30.559-79.797 65.061 1.747 2.44 1.726 7.184.111 10.751l15.725 21.487c1.713-3.176 4.632-3.643 6.379-1.204 19.58-28.981 45.009-45.257 77.507-49.814-1.567-3.638-.178-6.924 3.163-7.133"/>
            <path fill="#C4C4C4" d="M247.919 91.549c5.084 9.713 5.526 23.493-3.44 29.6-8.485 5.777-19.811-.348-25.427-8.75-6.28-9.392-6.323-25.003 1.928-32.165 9.057-7.862 21.968 1.819 26.939 11.315M267.96 84.13c1.375 3 .255 5.96-2.446 6.757-2.701.798-5.994-.79-7.413-3.692-1.42-2.9-.397-6.096 2.347-6.992 2.745-.895 6.135.929 7.511 3.927M204.843 129.718c1.501 2.186 4.102 1.946 5.905-.415 1.803-2.361 2.114-6.041.602-8.34-1.511-2.297-4.268-2.252-6.06.222-1.792 2.474-1.948 6.348-.447 8.533"/>
            <path fill="#C4C4C4" d="M236.929 110.735a18.002 18.002 0 0 1-5.61 2.338l-2.57-4.312a22.17 22.17 0 0 0 3.644-.98c1.252-.446 2.288-.943 3.098-1.513.669-.471 1.11-.9 1.32-1.298.209-.397.191-.812-.054-1.244a1.017 1.017 0 0 0-.771-.524c-.346-.05-.857-.024-1.532.089-.674.112-1.565.313-2.653.606-1.227.33-2.292.482-3.192.448-.898-.033-1.668-.245-2.311-.65-.644-.404-1.244-1.071-1.801-2.006-.852-1.428-1.12-2.893-.786-4.39.332-1.497 1.26-3.032 2.822-4.536-.422-.73-.632-1.096-1.055-1.825a91.7 91.7 0 0 1 2.48-1.903l1.037 1.82c1.657-1.081 3.55-1.782 5.673-2.075.275 1.96.415 2.937.7 4.884-2.194.272-3.955.93-5.292 1.921-.637.472-1.03.897-1.186 1.266a1.13 1.13 0 0 0 .06 1.058c.17.293.401.463.696.515.296.05.74.02 1.335-.082.595-.103 1.392-.294 2.397-.559 2.055-.51 3.714-.532 4.941-.138 1.228.393 2.223 1.29 2.98 2.662.854 1.547 1.107 3.063.775 4.55-.332 1.486-1.257 2.846-2.748 4.137l1.483 2.603c-.984.637-1.472.963-2.439 1.63l-1.441-2.492"/>
            <path fill="#C4C4C4" d="M234.81 67.964c-23.188 13.612-41.342 35.204-53.761 64.088l25.614 34.548c17.22-29.74 40.953-48.134 70.295-54.885-23.557-11.42-35.799-29.01-42.148-43.751"/>
            <path fill="#C4C4C4" d="M208.719 182.423l-16.902-16.091c1.996-3.149 2.206-7.18.344-9.154 9.292-13.292 19.717-24.487 31.496-33.614-4.043 7.915-2.194 19.187 1.859 26.205 4.118 7.132 13.927 15.31 22.147 15.243-11.049 3.704-21.54 9.381-31.821 17.28-1.862-1.974-5.09-1.978-7.123.13m41.21-34.532c-1.224 1.54-2.656 2.675-4.311 3.468l1.318 2.907c-.956.362-1.432.549-2.379.934l-1.384-2.925c-1.69.43-3.184.349-4.509-.266-1.324-.614-2.402-1.695-3.232-3.303-.736-1.426-.989-2.79-.744-4.114.245-1.324 1.007-2.832 2.323-4.497.656-.807 1.16-1.47 1.505-1.993.345-.523.563-.947.654-1.271.092-.324.06-.658-.094-1.002-.18-.395-.448-.624-.806-.681-.358-.057-.866.094-1.518.461-1.37.772-2.669 2.148-3.863 4.077-1.4-1.32-2.104-1.966-3.514-3.226 1.176-1.91 2.563-3.453 4.144-4.57l-.968-2.046c1.027-.648 1.544-.966 2.585-1.588l.966 2.13c1.87-.797 3.483-.91 4.804-.372 1.32.537 2.352 1.731 3.097 3.528.488 1.176.747 2.228.782 3.148.034.919-.138 1.837-.507 2.752-.37.916-.959 1.861-1.761 2.826-.712.855-1.266 1.56-1.655 2.115-.39.553-.64 1.002-.753 1.346-.114.342-.09.68.067 1.012.23.484.548.753.955.813.407.06.943-.064 1.611-.368.81-.369 1.661-.989 2.565-1.87a17.347 17.347 0 0 0 2.372-2.847l2.25 5.422m-65.677 17.176l27.645 24.515c25.931-21.787 54.526-28.375 87.713-23.04-1.161-4.396-3.059-9.627-5.555-15.139-2.95-.203-4.564 3.605-3.64 8.418-13.387-.736-25.717.363-37.384 3.555 6.775-5.164 4.145-21.594 1.722-28.592-2.589-7.473-10.47-19.298-19.548-19.237a133.93 133.93 0 0 1 16.383-8.6c-5.23-.788-10.613.153-16.01 3.407-20.891 12.962-37.971 31.412-51.326 54.713"/>
            <path fill="#C4C4C4" d="M210.886 155.696c1.981-1.993 4.9-1.711 6.448.52 1.546 2.23 1.163 5.337-.794 7.043-1.957 1.707-4.765 1.599-6.337-.346-1.57-1.945-1.299-5.225.683-7.217m-19.069 10.636l16.902 16.09c2.034-2.108 5.26-2.104 7.123-.13 10.28-7.899 20.772-13.576 31.821-17.28-8.22.068-18.03-8.11-22.147-15.243-4.053-7.018-5.901-18.29-1.859-26.205-11.78 9.127-22.204 20.322-31.496 33.614 1.862 1.974 1.652 6.005-.344 9.154M274.3 130.058c.951 3.9-.397 7.294-2.969 7.696-2.573.402-5.506-2.16-6.594-5.836-1.087-3.677.187-7.264 2.897-7.888 2.71-.626 5.717 2.129 6.667 6.028m-22.713-23.112a134.027 134.027 0 0 0-16.383 8.6c9.077-.061 16.96 11.764 19.548 19.238 2.423 6.998 5.053 23.426-1.722 28.591 11.667-3.192 23.997-4.291 37.384-3.555-.924-4.813.69-8.621 3.64-8.418-8.694-19.188-24.687-41.779-42.467-44.456"/>
            <path fill="#C4C4C4" d="M210.886 155.696c1.981-1.993 4.9-1.711 6.448.52 1.546 2.23 1.163 5.337-.794 7.043-1.957 1.707-4.765 1.599-6.337-.346-1.57-1.945-1.299-5.225.683-7.217M274.3 130.058c.951 3.9-.397 7.294-2.969 7.696-2.573.402-5.506-2.16-6.594-5.836-1.087-3.677.187-7.264 2.897-7.888 2.71-.626 5.717 2.129 6.667 6.028M246.936 154.265c-.956.362-1.432.549-2.379.934l-1.384-2.925c-1.69.43-3.185.35-4.509-.265-1.324-.614-2.403-1.696-3.232-3.304-.735-1.426-.988-2.79-.743-4.114.244-1.324 1.007-2.832 2.322-4.498.656-.806 1.16-1.47 1.505-1.992.344-.524.564-.947.655-1.272.09-.323.059-.657-.096-1.001-.178-.395-.446-.623-.804-.681-.359-.058-.867.094-1.52.461-1.369.772-2.667 2.148-3.861 4.077-1.401-1.32-2.105-1.966-3.515-3.225 1.176-1.911 2.563-3.454 4.145-4.57l-.969-2.046a96.294 96.294 0 0 1 2.585-1.588l.967 2.13c1.868-.798 3.482-.911 4.803-.373 1.32.538 2.352 1.732 3.097 3.528.488 1.176.747 2.227.781 3.147.035.92-.136 1.837-.506 2.753-.37.915-.96 1.861-1.76 2.826-.712.854-1.267 1.56-1.655 2.115-.39.554-.64 1.002-.754 1.346-.114.343-.091.68.066 1.012.231.484.549.753.956.813.407.06.942-.064 1.61-.368.812-.369 1.662-.988 2.565-1.87a17.315 17.315 0 0 0 2.374-2.847l2.25 5.422c-1.225 1.54-2.657 2.675-4.313 3.468l1.319 2.907M219.56 184.683c4.867-26.43 42.246-32.893 74.67 1.11l-74.67-1.11z"/>
            <path fill="#C4C4C4" d="M251.81 186.73a.755.755 0 0 0 .161.478c.244.309.68.35.973.091l17.082-15.06a.757.757 0 0 0 .088-1.025.666.666 0 0 0-.973-.092l-17.083 15.06a.743.743 0 0 0-.247.548M234.354 186.471a.748.748 0 0 0 .174.495c.253.3.69.327.975.06l17.681-16.576a.757.757 0 0 0 .058-1.029.668.668 0 0 0-.975-.06l-17.682 16.576a.743.743 0 0 0-.231.534"/>
            <path fill="#C4C4C4" d="M219.56 184.683c4.16 26.563 41.351 34.135 74.67 1.11l-74.67-1.11zM131.094 202.784c-16.915-29.367-41.529-45.367-74.532-51.743l36.273-67.35c40.985 23.172 64.624 59.385 72.612 105.546l-34.353 13.547"/>
            <path fill="#C4C4C4" d="M136.527 197.15l21.38-9.32c-.799-3.642.382-7.502 2.806-8.718-9.767-36.57-29.188-64.564-60.976-85.166-2.535 4.24-7.115 6.248-10.361 4.635l-22.49 40.118c2.91.771 3.147 4.942.612 9.183 27.17 8.263 47.078 22.625 62.382 46.701 2.424-1.216 5.457-.112 6.647 2.567"/>
            <path fill="#C4C4C4" d="M131.908 160.707c-7.036 5.9-21.18 10.6-28.507 5.426-8.424-5.95.977-23.162 6.161-29.537 6.147-7.56 22.112-18.576 30.283-7.1 7.049 9.896.064 24.502-7.937 31.211M141.801 178.31c-2.141 1.288-4.816.426-6.071-1.849-1.256-2.275-.554-5.325 1.662-6.89 2.216-1.565 5.055-.828 6.235 1.724 1.18 2.552.315 5.727-1.826 7.015M92.811 125.45c-2.225 3.336-2.12 6.988.16 8.249 2.279 1.26 5.911-.14 8.19-3.221 2.279-3.082 2.307-6.889-.026-8.405-2.332-1.517-6.098.039-8.324 3.376"/>
            <path fill="#C4C4C4" d="M112.48 155.302c-1.286-1.313-2.244-2.87-2.867-4.737l3.967-4.322a17.408 17.408 0 0 0 1.256 3.49c.548 1.137 1.136 2.011 1.77 2.636.525.515.986.816 1.389.898.402.084.794-.061 1.175-.436.262-.258.4-.567.41-.929.009-.361-.072-.869-.248-1.522-.177-.654-.457-1.508-.832-2.555-.424-1.182-.654-2.272-.689-3.259-.034-.987.119-1.908.465-2.76.346-.852.95-1.752 1.81-2.69 1.315-1.432 2.691-2.2 4.116-2.251 1.425-.052 2.902.607 4.386 1.998l1.636-1.67c.766.942 1.143 1.418 1.886 2.38l-1.61 1.59c1.105 1.59 1.88 3.516 2.332 5.716a144.944 144.944 0 0 0-4.404 1.824c-.463-2.223-1.213-3.961-2.236-5.155-.487-.569-.912-.886-1.269-.956-.356-.069-.686.054-.989.364-.262.27-.407.574-.431.91-.026.336.035.808.18 1.417.145.61.392 1.406.732 2.39.667 2.015.868 3.694.645 5.021-.222 1.328-.926 2.524-2.105 3.61-1.328 1.227-2.712 1.873-4.165 1.995-1.455.123-2.888-.313-4.327-1.297l-2.301 2.273a83.922 83.922 0 0 0-1.916-1.693l2.233-2.28"/>
            <path fill="#C4C4C4" d="M116.96 183.214c5.199 5.727 9.907 12.231 14.134 19.57l34.353-13.547c-6.264-36.198-22.157-66.277-48.487-88.75v82.727z"/>
            <path fill="#EEE" d="M214.291 225h-78.67c-7.57 0-7.686-6.15-7.686-13.733V75.209c0-7.584 6.137-13.732 13.706-13.732h72.65c7.57 0 13.706 6.148 13.706 13.732v136.058c0 7.584-6.136 13.732-13.706 13.732"/>
            <path fill="#EEE" d="M206.155 225h-72.65c-7.57 0-13.707-6.15-13.707-13.733V75.209c0-7.584 6.137-13.732 13.707-13.732h72.65c7.57 0 13.706 6.148 13.706 13.732v136.058c0 7.584-6.137 13.732-13.706 13.732"/>
            <g fill="#FFF">
                <path d="M133.505 92.654c-3.574 0-6.482-2.913-6.482-6.494V74.605c0-3.581 2.908-6.494 6.482-6.494h73.252c3.574 0 6.482 2.913 6.482 6.494V86.16c0 3.58-2.908 6.494-6.482 6.494h-73.252z"/>
                <path d="M133.974 93.86c-3.839 0-6.951-3.117-6.951-6.964V76.282c0-3.847 3.112-6.964 6.951-6.964h72.314c3.839 0 6.951 3.117 6.951 6.963v10.615c0 3.847-3.112 6.964-6.951 6.964h-72.314z"/>
                <path d="M206.117 93.257h-73.155c-3.6 0-6.52-2.924-6.52-6.532V75.246c0-3.607 2.92-6.532 6.52-6.532h73.155c3.6 0 6.52 2.925 6.52 6.532v11.479c0 3.608-2.92 6.532-6.52 6.532"/>
            </g>
            <path fill="#FFF" d="M148.068 113.6c0 5.327-4.31 9.645-9.628 9.645-5.317 0-9.628-4.318-9.628-9.645s4.311-9.646 9.628-9.646 9.628 4.319 9.628 9.646"/>
            <path fill="#FFF" d="M147.536 113.068c0 5.327-4.31 9.646-9.627 9.646-5.317 0-9.627-4.319-9.627-9.646 0-5.327 4.31-9.646 9.627-9.646 5.317 0 9.627 4.319 9.627 9.646M169.171 113.6c0 5.327-4.31 9.645-9.627 9.645-5.317 0-9.628-4.318-9.628-9.645s4.311-9.646 9.628-9.646 9.627 4.319 9.627 9.646"/>
            <path fill="#FFF" d="M168.64 113.068c0 5.327-4.31 9.646-9.628 9.646-5.316 0-9.627-4.319-9.627-9.646 0-5.327 4.311-9.646 9.627-9.646 5.318 0 9.628 4.319 9.628 9.646M190.275 113.6c0 5.327-4.31 9.645-9.628 9.645-5.317 0-9.627-4.318-9.627-9.645s4.31-9.646 9.627-9.646c5.317 0 9.628 4.319 9.628 9.646"/>
            <path fill="#FFF" d="M189.743 113.068c0 5.327-4.31 9.646-9.627 9.646-5.317 0-9.627-4.319-9.627-9.646 0-5.327 4.31-9.646 9.627-9.646 5.317 0 9.627 4.319 9.627 9.646"/>
            <path fill="#D35500" d="M211.378 113.6c0 5.327-4.31 9.645-9.627 9.645-5.318 0-9.628-4.318-9.628-9.645s4.31-9.646 9.628-9.646c5.317 0 9.627 4.319 9.627 9.646"/>
            <path fill="#CE181E" d="M210.847 113.068c0 5.327-4.31 9.646-9.627 9.646-5.317 0-9.628-4.319-9.628-9.646 0-5.327 4.31-9.646 9.628-9.646 5.317 0 9.627 4.319 9.627 9.646"/>
            <path fill="#FFF" d="M148.068 136.817c0 5.326-4.31 9.645-9.628 9.645-5.317 0-9.628-4.319-9.628-9.645 0-5.327 4.311-9.646 9.628-9.646s9.628 4.319 9.628 9.646"/>
            <path fill="#FFF" d="M147.536 136.284c0 5.328-4.31 9.646-9.627 9.646-5.317 0-9.627-4.318-9.627-9.646 0-5.326 4.31-9.645 9.627-9.645 5.317 0 9.627 4.319 9.627 9.645M169.171 136.817c0 5.326-4.31 9.645-9.627 9.645-5.317 0-9.628-4.319-9.628-9.645 0-5.327 4.311-9.646 9.628-9.646s9.627 4.319 9.627 9.646"/>
            <path fill="#FFF" d="M168.64 136.284c0 5.328-4.31 9.646-9.628 9.646-5.316 0-9.627-4.318-9.627-9.646 0-5.326 4.311-9.645 9.627-9.645 5.318 0 9.628 4.319 9.628 9.645M190.275 136.817c0 5.326-4.31 9.645-9.628 9.645-5.317 0-9.627-4.319-9.627-9.645 0-5.327 4.31-9.646 9.627-9.646 5.317 0 9.628 4.319 9.628 9.646"/>
            <path fill="#FFF" d="M189.743 136.284c0 5.328-4.31 9.646-9.627 9.646-5.317 0-9.627-4.318-9.627-9.646 0-5.326 4.31-9.645 9.627-9.645 5.317 0 9.627 4.319 9.627 9.645"/>
            <path fill="#D35500" d="M211.378 136.817c0 5.326-4.31 9.645-9.627 9.645-5.318 0-9.628-4.319-9.628-9.645 0-5.327 4.31-9.646 9.628-9.646 5.317 0 9.627 4.319 9.627 9.646"/>
            <path fill="#CE181E" d="M210.847 136.284c0 5.328-4.31 9.646-9.627 9.646-5.317 0-9.628-4.318-9.628-9.646 0-5.326 4.31-9.645 9.628-9.645 5.317 0 9.627 4.319 9.627 9.645"/>
            <path fill="#FFF" d="M148.068 160.21c0 5.328-4.31 9.646-9.628 9.646-5.317 0-9.628-4.318-9.628-9.646 0-5.326 4.311-9.645 9.628-9.645s9.628 4.319 9.628 9.645"/>
            <path fill="#FFF" d="M147.536 159.679c0 5.327-4.31 9.645-9.627 9.645-5.317 0-9.627-4.318-9.627-9.645 0-5.328 4.31-9.646 9.627-9.646 5.317 0 9.627 4.318 9.627 9.646M169.171 160.21c0 5.328-4.31 9.646-9.627 9.646-5.317 0-9.628-4.318-9.628-9.646 0-5.326 4.311-9.645 9.628-9.645s9.627 4.319 9.627 9.645"/>
            <path fill="#FFF" d="M168.64 159.679c0 5.327-4.31 9.645-9.628 9.645-5.316 0-9.627-4.318-9.627-9.645 0-5.328 4.311-9.646 9.627-9.646 5.318 0 9.628 4.318 9.628 9.646M190.275 160.21c0 5.328-4.31 9.646-9.628 9.646-5.317 0-9.627-4.318-9.627-9.646 0-5.326 4.31-9.645 9.627-9.645 5.317 0 9.628 4.319 9.628 9.645"/>
            <path fill="#FFF" d="M189.743 159.679c0 5.327-4.31 9.645-9.627 9.645-5.317 0-9.627-4.318-9.627-9.645 0-5.328 4.31-9.646 9.627-9.646 5.317 0 9.627 4.318 9.627 9.646"/>
            <path fill="#D35500" d="M211.378 160.21c0 5.328-4.31 9.646-9.627 9.646-5.318 0-9.628-4.318-9.628-9.646 0-5.326 4.31-9.645 9.628-9.645 5.317 0 9.627 4.319 9.627 9.645"/>
            <path fill="#CE181E" d="M210.847 159.679c0 5.327-4.31 9.645-9.627 9.645-5.317 0-9.628-4.318-9.628-9.645 0-5.328 4.31-9.646 9.628-9.646 5.317 0 9.627 4.318 9.627 9.646"/>
            <path fill="#FFF" d="M148.068 183.605c0 5.326-4.31 9.645-9.628 9.645-5.317 0-9.628-4.319-9.628-9.645 0-5.328 4.311-9.646 9.628-9.646s9.628 4.318 9.628 9.646"/>
            <path fill="#FFF" d="M147.536 183.072c0 5.328-4.31 9.646-9.627 9.646-5.317 0-9.627-4.318-9.627-9.646 0-5.326 4.31-9.645 9.627-9.645 5.317 0 9.627 4.319 9.627 9.645M169.171 183.605c0 5.326-4.31 9.645-9.627 9.645-5.317 0-9.628-4.319-9.628-9.645 0-5.328 4.311-9.646 9.628-9.646s9.627 4.318 9.627 9.646"/>
            <path fill="#FFF" d="M168.64 183.072c0 5.328-4.31 9.646-9.628 9.646-5.316 0-9.627-4.318-9.627-9.646 0-5.326 4.311-9.645 9.627-9.645 5.318 0 9.628 4.319 9.628 9.645M190.275 183.605c0 5.326-4.31 9.645-9.628 9.645-5.317 0-9.627-4.319-9.627-9.645 0-5.328 4.31-9.646 9.627-9.646 5.317 0 9.628 4.318 9.628 9.646"/>
            <path fill="#FFF" d="M189.743 183.072c0 5.328-4.31 9.646-9.627 9.646-5.317 0-9.627-4.318-9.627-9.646 0-5.326 4.31-9.645 9.627-9.645 5.317 0 9.627 4.319 9.627 9.645"/>
            <path fill="#D35500" d="M211.378 183.605c0 5.326-4.31 9.645-9.627 9.645-5.318 0-9.628-4.319-9.628-9.645 0-5.328 4.31-9.646 9.628-9.646 5.317 0 9.627 4.318 9.627 9.646"/>
            <path fill="#CE181E" d="M210.835 183.567c-.273 5.32-4.8 9.412-10.109 9.138-5.31-.273-9.394-4.807-9.122-10.127.273-5.32 4.8-9.412 10.11-9.138 5.31.273 9.393 4.808 9.12 10.127"/>
            <path fill="#D35500" d="M190.275 206.998c0 5.328-4.31 9.646-9.628 9.646-5.317 0-9.627-4.318-9.627-9.646 0-5.326 4.31-9.645 9.627-9.645 5.317 0 9.628 4.319 9.628 9.645"/>
            <path fill="#F7AA92" d="M189.743 206.467c0 5.327-4.31 9.645-9.627 9.645-5.317 0-9.627-4.318-9.627-9.645 0-5.328 4.31-9.646 9.627-9.646 5.317 0 9.627 4.318 9.627 9.646"/>
            <path fill="#D35500" d="M211.378 206.998c0 5.328-4.31 9.646-9.627 9.646-5.318 0-9.628-4.318-9.628-9.646 0-5.326 4.31-9.645 9.628-9.645 5.317 0 9.627 4.319 9.627 9.645"/>
            <path fill="#CE181E" d="M210.847 206.467c0 5.327-4.31 9.645-9.627 9.645-5.317 0-9.628-4.318-9.628-9.645 0-5.328 4.31-9.646 9.628-9.646 5.317 0 9.627 4.318 9.627 9.646"/>
            <path fill="#D35500" d="M159.544 197.353H138.44c-5.317 0-9.627 4.319-9.627 9.645 0 5.328 4.31 9.646 9.627 9.646h21.104c5.317 0 9.627-4.318 9.627-9.646 0-5.326-4.31-9.645-9.627-9.645"/>
            <path fill="#F7AA92" d="M159.012 196.821H137.91c-5.317 0-9.627 4.318-9.627 9.646 0 5.327 4.31 9.645 9.627 9.645h21.103c5.318 0 9.628-4.318 9.628-9.645 0-5.328-4.31-9.646-9.628-9.646"/>
            <path fill="#00181D" d="M136.846 206.77c0 .822.084 1.409.254 1.76.168.353.437.528.808.528.37 0 .641-.178.813-.535.171-.358.256-.942.256-1.753 0-.808-.085-1.393-.256-1.755-.172-.361-.443-.542-.813-.542-.371 0-.64.177-.808.533-.17.354-.254.943-.254 1.764m3.107 0c0 1.047-.167 1.825-.504 2.334-.336.508-.85.763-1.541.763-.67 0-1.177-.263-1.523-.788-.346-.525-.518-1.295-.518-2.309 0-1.064.168-1.848.504-2.352.336-.505.848-.757 1.537-.757.672 0 1.182.264 1.526.792.346.527.519 1.3.519 2.317M138.715 186.143h-.968v-3.892c0-.465.011-.834.033-1.106-.063.067-.14.14-.232.22-.093.079-.4.332-.924.758l-.486-.615 1.77-1.393h.807v6.028zM161.069 186.143h-4.079v-.734l1.552-1.562c.459-.47.762-.804.912-1a2.4 2.4 0 0 0 .327-.555c.068-.174.103-.359.103-.557 0-.271-.083-.486-.245-.643-.163-.157-.388-.235-.677-.235-.23 0-.454.042-.668.128-.216.086-.465.24-.748.462l-.523-.64c.335-.282.66-.483.976-.601a2.85 2.85 0 0 1 1.008-.177c.56 0 1.008.146 1.345.438.338.293.507.687.507 1.182 0 .272-.05.53-.146.774a3.168 3.168 0 0 1-.449.758c-.201.26-.537.61-1.006 1.053l-1.045 1.014v.042h2.856v.853zM181.959 181.623c0 .383-.111.7-.333.954-.223.255-.536.426-.938.514v.033c.482.06.844.21 1.086.451.241.24.361.56.361.959 0 .58-.204 1.027-.613 1.342-.408.315-.99.472-1.745.472-.666 0-1.228-.109-1.686-.326v-.862a3.858 3.858 0 0 0 1.633.397c.466 0 .815-.088 1.046-.26.23-.174.345-.442.345-.805 0-.321-.128-.558-.383-.709-.255-.151-.655-.226-1.202-.226h-.522v-.787h.531c.96 0 1.44-.334 1.44-.999 0-.258-.083-.458-.251-.597-.167-.14-.414-.21-.74-.21-.228 0-.448.031-.659.096-.211.065-.461.19-.749.378l-.473-.677c.551-.407 1.191-.61 1.921-.61.607 0 1.08.13 1.42.392.341.261.51.621.51 1.08"/>
            <path fill="#FFF" d="M200.885 183.595h-1.637v-.734h1.637v-1.682h.741v1.682h1.642v.734h-1.642v1.674h-.741z"/>
            <path fill="#00181D" d="M138.414 160.876v-1.514c0-.539.014-.98.042-1.323h-.033c-.078.181-.198.402-.363.66l-1.494 2.177h1.848zm1.753.803h-.81v1.316h-.943v-1.316h-2.749v-.746l2.749-3.983h.942v3.926h.811v.803zM159.032 159.23c.606 0 1.086.161 1.44.482.354.323.531.76.531 1.316 0 .643-.2 1.146-.603 1.507-.402.361-.973.542-1.714.542-.672 0-1.2-.108-1.585-.326v-.878c.223.127.479.224.766.293.288.069.556.103.803.103.436 0 .768-.097.996-.293.228-.195.341-.48.341-.857 0-.72-.458-1.08-1.374-1.08-.13 0-.288.012-.478.038-.189.026-.355.056-.498.089l-.432-.255.23-2.944h3.128v.861h-2.275l-.136 1.493.352-.058c.138-.022.308-.033.508-.033M180.222 162.401c.332 0 .588-.107.768-.32.18-.215.269-.522.269-.92 0-.347-.084-.619-.253-.817-.169-.198-.422-.297-.76-.297-.208 0-.4.045-.575.134-.176.09-.315.212-.416.367a.856.856 0 0 0-.152.476c0 .387.104.714.314.98.21.264.48.397.805.397m-2.099-1.851c0-2.358.959-3.538 2.877-3.538.302 0 .557.024.765.07v.808c-.208-.06-.45-.09-.724-.09-.645 0-1.129.173-1.452.52-.324.346-.5.901-.528 1.665h.05c.129-.222.31-.394.544-.517.232-.122.507-.184.823-.184.545 0 .97.168 1.275.503.304.336.457.791.457 1.365 0 .632-.176 1.132-.53 1.499-.352.367-.832.55-1.442.55-.43 0-.805-.104-1.123-.311-.318-.207-.563-.51-.735-.907-.17-.397-.257-.875-.257-1.433"/>
            <path fill="#FFF" d="M199.487 161.18h3.54v-.782h-3.54z"/>
            <path fill="#00181D" d="M136.558 139.849l2.379-5.167h-3.128v-.853h4.16v.676l-2.366 5.344zM159.015 134.488c-.274 0-.495.069-.662.205a.676.676 0 0 0-.251.554c0 .144.03.27.09.384.06.112.149.215.264.307.116.092.31.203.584.332.329-.145.562-.299.697-.46a.845.845 0 0 0 .205-.563.677.677 0 0 0-.253-.554c-.17-.136-.393-.205-.674-.205m-1.107 3.798c0 .286.1.507.3.665.2.16.473.238.816.238.354 0 .629-.082.825-.246.195-.163.294-.385.294-.665 0-.223-.09-.427-.272-.611-.18-.184-.455-.354-.823-.51l-.12-.054c-.36.158-.622.335-.781.525a1 1 0 0 0-.24.658m1.117-4.544c.57 0 1.021.131 1.353.394.333.263.498.613.498 1.053 0 .619-.37 1.111-1.11 1.476.471.237.807.485 1.006.747.198.26.298.552.298.874 0 .498-.183.896-.547 1.196-.365.299-.86.449-1.482.449-.652 0-1.16-.14-1.519-.42-.359-.281-.538-.678-.538-1.192 0-.335.093-.637.28-.906.19-.267.497-.506.925-.714-.367-.22-.63-.452-.785-.697a1.495 1.495 0 0 1-.236-.825c0-.437.172-.786.515-1.045.342-.26.79-.39 1.342-.39M180.078 134.67c-.335 0-.591.11-.77.328-.178.219-.267.526-.267.922 0 .344.083.613.25.81.165.196.416.295.754.295.326 0 .6-.098.823-.293.223-.195.333-.424.333-.684 0-.245-.047-.474-.141-.687a1.229 1.229 0 0 0-.398-.505.969.969 0 0 0-.584-.185m2.099 1.847c0 1.187-.24 2.073-.716 2.66-.478.585-1.196.877-2.157.877-.364 0-.626-.022-.785-.066v-.812c.244.07.489.103.736.103.653 0 1.14-.176 1.46-.528.322-.352.497-.904.527-1.657h-.049a1.46 1.46 0 0 1-.586.535c-.23.111-.498.166-.805.166-.532 0-.95-.167-1.255-.5-.304-.331-.457-.788-.457-1.368 0-.63.176-1.13.529-1.503.353-.372.833-.559 1.443-.559.428 0 .8.105 1.119.314.318.208.563.512.737.909.172.397.259.873.259 1.429"/>
            <path fill="#F9FBFC" d="M200.64 136.978l-1.527-2.231h1.103l1.037 1.596 1.045-1.596h1.095l-1.531 2.23 1.609 2.33h-1.095l-1.123-1.707-1.12 1.707h-1.094z"/>
            <path fill="#00181D" d="M136.54 114.178l-.564-1.64c-.04-.11-.097-.284-.17-.52a10.64 10.64 0 0 1-.15-.52 9.347 9.347 0 0 1-.325 1.109l-.544 1.571h1.754zm.86 2.523l-.6-1.674h-2.3l-.59 1.674h-1.036l2.25-6.052h1.07l2.252 6.052H137.4zM140.957 111.432c-.565 0-1.01.2-1.333.602-.324.401-.486.955-.486 1.662 0 .74.156 1.299.467 1.678.311.378.762.569 1.352.569.255 0 .503-.026.74-.077.24-.05.488-.116.745-.195v.844c-.471.18-1.007.269-1.604.269-.88 0-1.557-.268-2.03-.803-.47-.534-.708-1.298-.708-2.294 0-.626.116-1.175.344-1.645.23-.47.56-.83.995-1.08.433-.25.942-.375 1.526-.375a3.78 3.78 0 0 1 1.704.388l-.354.82a5.461 5.461 0 0 0-.644-.254 2.346 2.346 0 0 0-.714-.109M158.531 116.701l-1.745-5.034h-.033c.047.748.07 1.449.07 2.103v2.931h-.892v-6.028h1.386l1.671 4.796h.025l1.72-4.796h1.39v6.028h-.946v-2.98c0-.3.008-.69.023-1.171.015-.481.029-.773.039-.874h-.033L159.4 116.7h-.869zM181.575 115.012c0 .41.041.715.122.918.08.204.212.306.393.306.359 0 .54-.408.54-1.224 0-.806-.181-1.21-.54-1.21-.18 0-.312.1-.393.298-.08.198-.122.502-.122.912zm1.852 0c0 .632-.113 1.105-.34 1.421-.229.317-.561.475-.997.475-.417 0-.741-.163-.972-.489-.23-.326-.345-.795-.345-1.407 0-1.257.439-1.884 1.317-1.884.422 0 .751.161.985.486.235.324.352.79.352 1.398zm-1.222-4.214l-3.337 6.027h-.798l3.337-6.027h.798zm-4.548 1.806c0 .409.04.714.12.915.08.2.21.3.391.3.362 0 .543-.405.543-1.215 0-.812-.18-1.217-.543-1.217-.181 0-.311.1-.391.302-.08.2-.12.505-.12.915zm1.853-.008c0 .632-.114 1.107-.34 1.424-.226.317-.56.477-1.002.477-.417 0-.74-.165-.97-.494-.228-.328-.343-.798-.343-1.407 0-1.257.438-1.885 1.313-1.885.43 0 .762.163.994.49.231.325.348.79.348 1.395zM180.712 208.929c-.132.51-.374 1.169-.724 1.975h-.712c.189-.742.33-1.433.423-2.07h.951l.062.095z"/>
            <path fill="#FFF" d="M199.272 207.972h3.962v-.734h-3.962v.734zm0-1.645h3.962v-.738h-3.962v.738z"/>
            <path fill="#EEE" d="M90.557 121.086c3.303-3.066 5.412-8.797 1.915-9.586-5.63-1.272-15.638 13.146-14.213 21.892.633 6.052 10.138 15.205 10.138 15.205l.431-1.747c-5.762-9.894-4.714-12.704-5.057-13.81.164-3.813 1.734-7.265 6.786-11.954"/>
            <path fill="#EEE" d="M82.773 121.548c-1.22 2.876-.418 6.145 1.126 10.102.474-3.288 2.225-6.45 6.657-10.564 3.082-2.86 5.118-8.033 2.544-9.358l-1.764-.283c-3.176.34-7.269 7.052-8.563 10.103"/>
        </g>
        <g transform="translate(66 140)">
            <mask id="y" fill="#fff">
                <use xlink:href="#w"/>
            </mask>
            <path fill="url(#x)" d="M23.601.787c-2.348 6.583-5.254 8.472-7.492 11.174-2.307 2.786-.76 8.734.763 10.342 2.687 2.834 3.636 32.667 3.636 32.667s-12.5.517-20.29 33.965l5.488 4.451h5.674l-2.287-2.758-1.576-.636-1.827-4.114S16.859 67.305 25.85 58.161c1.742-3.139 5.47-16.815 8.636-55.5C33.25.912 30.102.516 27.51.516c-2.143 0-3.908.27-3.908.27" mask="url(#y)"/>
        </g>
        <path fill="#F7AA92" d="M91.05 199.293c1.603-3.175 5.035-17.005 7.95-56.126-2.082-3.228-10.022-1.894-10.022-1.894-2.16 6.656-4.837 8.568-6.897 11.3-2.123 2.817-.7 8.831.704 10.458 2.472 2.867 3.347 33.034 3.347 33.034s-1.226.057-3.127 1.308c1.13 2.08 2.3 5.328 2.055 9.627 2.002-2.849 4.05-5.541 5.99-7.707"/>
        <g transform="translate(86 139)">
            <mask id="B" fill="#fff">
                <use xlink:href="#z"/>
            </mask>
            <path fill="url(#A)" d="M6.162 2.393c-1.483 8.104-9.37 9.93-3.54 19.454 2.008 3.278 7.324 36.559 7.324 36.559s-9.534 3.967-4.41 36.972h11.099l-2.146-2.796-6.746-1.292s4.985-24.541 6.242-29.736c3.092-6.576 9.767-25.29 2.269-60.18C15.669.483 14.64.16 13.456.16c-3.111 0-7.294 2.233-7.294 2.233" mask="url(#B)"/>
        </g>
        <g>
            <path fill="#F7AA92" d="M103.09 140.615c-2.216-3.227-10.532 1.015-10.532 1.015-1.548 8.084-9.778 9.906-3.694 19.406 2.095 3.27 7.643 36.464 7.643 36.464s-1.562.624-3.115 3.422l.001.004c3.586.84 5.788 6.36 4.958 10.162 1.005-4.58 1.92-8.66 2.371-10.447 3.227-6.558 10.194-25.226 2.368-60.026"/>
            <path fill="#40586B" d="M97.448 230.895s1.353 2.281-5.734 2.281l.19 1.204h11.584l-2.24-2.789-3.8-.696zM66.558 228.393l-.345 1.488 5.377 4.5h5.559l-2.24-2.79-1.545-.642-.346-.807s-1.878 2.45-6.46-1.75"/>
            <path fill="#F7AA92" d="M103.928 92.193c-1.131-9.308-16.474-10.632-18.196-1.985-1.578 7.919 8.45 16.221 19.593 15.892.802-.023 1.56-.367 1.435-1.402l-2.832-12.505z"/>
        </g>
        <g transform="translate(97 89)">
            <mask id="E" fill="#fff">
                <use xlink:href="#C"/>
            </mask>
            <path fill="url(#D)" d="M.638 2.948l2.64 8.412c.627 1.995 2.059 3.704 4.021 4.726 1.38.716 2.642 1.017 2.453-.432L6.829 3.63C6.452 2.016 5.32 1.003 4.05.366A2.528 2.528 0 0 0 2.912.093C1.417.093.132 1.445.638 2.948" mask="url(#E)"/>
        </g>
        <g>
            <path fill="#F7AA92" d="M93.434 100.916c-.135 3.114-.306 10.396-.306 10.396h5.737l.64-7.724c-.929-2.873-5.988-4.572-6.07-2.672"/>
            <path fill="#CE181E" d="M87.806 139.547c-2.529 16.12-15.529-.284-4.217 52.197 0 0 7.14 9.297 22.338 2.434 4.986-32.232-2.617-44.158-2.617-54.915l-15.504.284z"/>
            <path fill="#EEE" d="M87.806 139.547c0-9.363-3.774-12.845-3.812-19.4-.052-8.835 6.495-11.058 12.322-10.55 3.625.314 5.71 1.34 7.666 4.02 2.515 3.443 3.677 9.085 3.028 11.846-.726 3.085-3.7 4.031-3.7 13.8 0 0-9.52 3.43-15.504.284"/>
            <path fill="#000" d="M78.546 96.711c-2.336 3.151.107 7.063 4.267 7.482 3.434.346 4.813 2.853 3.493 3.997-.868.754-4.115.901-2.144 4.173h14.022c2.747 0 1.32-2.01 2.557-3.376 5.598-6.179.705-7.735-.636-11.11-.332-.837-.6-2.283.88-3.063 2.344-1.424 4.859-3.022 4.859-5.312 0-5.394-5.88-8.285-12.098-7.814-5.072.384-10.669 2.921-11.19 6.319-.271 1.776 1.61 3.596.998 5.118-.569 1.415-3.044.935-5.008 3.586M87.198 138.247v2.629h16.627v-1.91z"/>
            <path fill="#EEE" d="M105.314 119.984c-.32-4.26-3.334-8.962-5.999-6.575-4.289 3.841-1.296 21.198 6.06 24.655 8.91.65 10.248-15.55 10.248-15.55l-1.466.285c-.487 3.678-4.125 6.081-6.288 8.994-2.74-2.135-2.065-5.295-2.555-11.809"/>
        </g>
        <g transform="translate(110 115)">
            <mask id="H" fill="#fff">
                <use xlink:href="#F"/>
            </mask>
            <path fill="url(#G)" d="M.97 1.341C.04 2.483-.094 3.408 1.346 3.833c0 0-1.268 1.334-.484 2.683.785 1.348 2.425.236 2.51 2.979L5.598.885C5.278.456 4.601.262 3.85.262 2.762.26 1.519.666.97 1.34" mask="url(#H)"/>
        </g>
        <g transform="translate(112 109)">
            <mask id="K" fill="#fff">
                <use xlink:href="#I"/>
            </mask>
            <path fill="url(#J)" d="M3.893.348c-1.039.799.394 1.813-.419 4.25-.657 1.972-1.456.975-2.618 3.318-1.162 2.341 1.31 2.463 1.475 5.59l1.328-.274c.326-3.813 1.443-5.176 1.66-7.515C5.683 1.789 4.314.33 3.949.33a.086.086 0 0 0-.056.017" mask="url(#K)"/>
        </g>
        <g transform="translate(112 113)">
            <mask id="N" fill="#fff">
                <use xlink:href="#L"/>
            </mask>
            <path fill="url(#M)" d="M1.361 1.62c-.2 2.276-1.636 2.564-.634 4.841 0 0 1.704-1.154 1.927-4.134C2.762.887 2.49.375 2.167.375c-.344 0-.747.585-.806 1.246" mask="url(#N)"/>
        </g>
        <g>
            <path fill="#F7F7F7" d="M208.145 121.36c2.875 8.526 11.434 20.322 18.257 20.488 8.405 1.026 13.378-6.978 17.25-9.594 6.292-4.25 7.096-11.016 2.922-15.82-2.663-3.068-6.468-1.714-8.673 1.568-3.946 5.872-3.437 6.142-10.686 13.465L211 118.972l-2.856 2.388z"/>
            <path fill="#012428" d="M241.874 87.332c-2.711 3.095-2.934 5.68-.976 9.966 2.13 4.66 5.372-9.323 5.372-9.323l-4.396-.643z"/>
            <path fill="#F7AA92" d="M241.33 93.426c1.547-9.132 16.745-9.745 18.204-1.161 1.874 11.03-9.627 14.784-19.594 13.052-.788-.137-1.498-1.257-1.326-2.273l2.715-9.618z"/>
        </g>
        <g transform="translate(243 101)">
            <mask id="Q" fill="#fff">
                <use xlink:href="#O"/>
            </mask>
            <path fill="url(#P)" d="M.298 3.97l.933 7.238 7.135.302s.123-7.048.098-10.064C8.46.904 7.86.663 6.986.663 4.89.663 1.206 2.044.298 3.969" mask="url(#Q)"/>
        </g>
        <g transform="translate(237 85)">
            <mask id="T" fill="#fff">
                <use xlink:href="#R"/>
            </mask>
            <path fill="url(#S)" d="M2.974 4.883L.167 16.453a3.533 3.533 0 0 0 .429 2.906l.689 1.079c.778 1.22 2.414 1.735 3.848 1.21l4.9-1.79c1.299-.476 2.25-1.516 2.533-2.77l.415-1.827c.728 2.164 3.513-2.277 3.517-3.561.004-1.131-.861-1.806-2.763.234l1.385-6.118C15.784 2.635 12.284.322 8.844.322c-2.593 0-5.153 1.314-5.87 4.56" mask="url(#T)"/>
        </g>
        <g>
            <path fill="#000" d="M262.198 86.996c-6.37.086-11.91-11.212-12.74-8.363-.83 2.85-8.725 2.036-10.248 6.242-1.524 4.206 2.77 5.038 7.616 3.663 4.848-1.375 6.68.797 5.689 4.264-.581 2.03-1.855 3.816-2.809 4.947-.294.348.067.852.503.706l1.425-.475c1.924-2.038 2.799-1.363 2.795-.234-.004 1.062-1.93 4.273-3.013 4.128v.007l-.012 4.433c10.81-4.07 17.165-19.404 10.794-19.318M260.428 147.538c4.617 4.944 4.022 10.82.688 13.672-3.333 2.854-5.607 37.067-5.607 37.067s7.227 7.904-.299 36.39h-12.563l.968-2.349 8.777-1.712s-2.53-23.13-4.254-29.536c-2.694-7.46-7.82-38.86-6.993-53.532 3.202-3.212 19.283 0 19.283 0"/>
            <g transform="translate(245.216 146.131)">
                <mask id="V" fill="#fff">
                    <use xlink:href="#U"/>
                </mask>
                <path fill="#000" d="M16.52 1.621c5.817 4.939 6.65 10.806 4.01 13.656-2.641 2.85 2.769 36.687 2.769 36.687s8.484 3.938 3.12 36.68H12.559l2.246-2.773 7.81-1.284s-5.22-24.346-6.535-29.5C15.288 51.06 5.172 35.712.227 1.622c2.422-3.208 16.293 0 16.293 0" mask="url(#V)"/>
            </g>
            <path fill="#F7F7F7" d="M262.484 131.764c.577-3.917 1.39-10.783-1.49-15.213-4.47-6.874-18.262-4.689-22.097-.964-4.25 4.128-4.907 9.166-4.602 14.423.457 7.882 4.962 36.202 4.962 36.202 5.183 7.752 25.243-8.63 27.31-13.785-2.49-5.13-6.192-6.316-4.083-20.663"/>
        </g>
        <g transform="translate(199 107)">
            <mask id="Y" fill="#fff">
                <use xlink:href="#W"/>
            </mask>
            <path fill="url(#X)" d="M1.83 3.236c2.15 2.243 2.331 2.537 2.331 2.537s-2.232 2.3-.806 4.741C4.781 12.957 9.53 12.74 9.53 12.74l2.777-2.247L.96.258s-1.28.733.87 2.978" mask="url(#Y)"/>
        </g>
        <g>
            <path fill="#EEE" d="M267.266 151.124c-2.357-5.18-5.865-6.377-3.867-20.863.213-1.54.457-3.53.517-5.65l-10.621-8.92c.391 5.554 3.06 11.257 3.426 23.178.162 5.238.118 16.774-1.353 24.149 5.29-3.563 10.84-9.082 11.898-11.894"/>
            <path fill="#F7F7F7" d="M262.229 163.555c5.294-8.04 6.57-17.438 6.745-23.244.153-4.98-2.103-11.157-2.212-15.84-.176-7.61-5.667-13.072-11.794-13.842-3.892-.489-2.646 6.305-1.44 9.787 2.241 6.475 4.015 7.916 6.195 18.036l-.981 24.252 3.487.85z"/>
        </g>
        <g transform="translate(253 164)">
            <mask id="ab" fill="#fff">
                <use xlink:href="#Z"/>
            </mask>
            <path fill="url(#aa)" d="M.335 7.014c1.1 4.006 5.01 5.27 6.749 4.533 2.094-.889 1.092-4.092 1.001-6.639-.089-2.547.458-3.922.458-3.922L4.515.174c-.11 2.652-4.809 4.548-4.18 6.84" mask="url(#ab)"/>
        </g>
    </g>
</svg>
